<?xml version="1.0" standalone="no"?>
<!DOCTYPE svg PUBLIC "-//W3C//DTD SVG 20010904//EN"
 "http://www.w3.org/TR/2001/REC-SVG-20010904/DTD/svg10.dtd">
<svg version="1.0" xmlns="http://www.w3.org/2000/svg"
 width="640.000000pt" height="640.000000pt" viewBox="0 0 640.000000 640.000000"
 preserveAspectRatio="xMidYMid meet">
<metadata>
Created by potrace 1.14, written by Peter Selinger 2001-2017
</metadata>
<g transform="translate(0.000000,640.000000) scale(0.100000,-0.100000)"
fill="#000000" stroke="none">
<path d="M1615 5881 c-6 -6 -23 -12 -40 -15 -16 -3 -45 -10 -62 -15 -18 -5
-33 -7 -33 -4 0 3 -7 0 -15 -7 -8 -7 -15 -9 -15 -5 0 4 -7 2 -15 -5 -8 -7 -15
-9 -15 -5 0 4 -7 2 -15 -5 -8 -6 -19 -9 -25 -5 -5 3 -10 2 -10 -4 0 -6 -12
-14 -27 -17 -16 -4 -38 -14 -50 -22 -13 -8 -30 -12 -38 -8 -9 3 -13 2 -10 -4
3 -5 -4 -14 -15 -20 -11 -6 -20 -7 -20 -3 0 4 -4 3 -8 -3 -11 -16 -105 -77
-119 -77 -7 0 -10 -4 -8 -8 3 -4 -8 -15 -23 -25 -15 -9 -34 -24 -42 -33 -8 -9
-36 -35 -62 -58 -26 -24 -46 -43 -44 -43 3 0 -8 -13 -22 -29 -47 -49 -71 -81
-77 -101 -4 -11 -10 -20 -15 -20 -5 0 -19 -20 -31 -45 -12 -25 -30 -45 -38
-46 -10 0 -11 -3 -4 -5 7 -3 9 -12 6 -20 -3 -7 -10 -11 -16 -7 -5 3 -7 1 -4
-5 10 -15 -3 -43 -16 -35 -6 3 -7 1 -3 -6 4 -6 3 -18 -4 -26 -6 -7 -13 -26
-16 -40 -3 -15 -11 -40 -19 -55 -12 -24 -18 -45 -29 -106 -1 -7 -8 -19 -14
-27 -9 -10 -10 -17 -2 -22 6 -3 8 -10 6 -14 -8 -12 -16 -61 -22 -125 -3 -33
-7 -63 -10 -68 -3 -4 0 -8 7 -8 9 0 9 -3 0 -14 -9 -10 -9 -16 -1 -21 8 -5 8
-10 0 -20 -8 -10 -8 -15 0 -20 8 -5 8 -11 1 -19 -6 -7 -8 -15 -5 -18 5 -6 12
-50 16 -105 1 -18 5 -33 8 -33 3 0 6 -10 7 -22 1 -24 5 -39 22 -95 5 -18 7
-33 4 -33 -3 0 2 -9 11 -19 13 -15 14 -20 4 -24 -11 -4 -11 -6 0 -6 7 -1 10
-5 7 -11 -3 -5 -2 -10 3 -10 7 0 29 -57 34 -87 1 -5 8 -13 17 -20 9 -7 12 -13
8 -13 -5 0 -2 -7 7 -15 8 -9 12 -23 9 -32 -4 -10 -2 -14 4 -10 6 4 21 -14 33
-38 13 -25 27 -45 33 -45 5 0 6 -8 3 -17 -4 -10 -4 -14 0 -10 8 7 40 -33 36
-46 -1 -4 2 -6 7 -5 5 2 9 1 8 -2 0 -3 18 -23 41 -46 23 -22 39 -44 35 -47 -3
-4 0 -7 9 -7 8 0 23 -10 35 -22 11 -13 36 -36 56 -52 20 -15 34 -33 30 -39 -3
-6 -1 -7 6 -3 14 9 64 -21 56 -33 -2 -5 3 -8 13 -7 11 1 17 -6 16 -20 -1 -11
5 -21 12 -21 11 0 11 3 1 15 -10 13 -9 14 3 9 8 -4 23 -10 33 -13 9 -4 17 -14
17 -23 0 -13 2 -13 9 -2 7 11 10 11 17 -2 5 -9 14 -17 19 -19 6 -2 9 -7 7 -12
-2 -5 3 -4 10 2 8 6 19 7 28 2 12 -7 12 -11 0 -27 -12 -15 -12 -16 0 -5 17 14
50 16 50 2 0 -5 8 -6 17 -3 12 5 15 2 11 -9 -4 -8 -1 -15 8 -15 7 0 11 4 8 9
-6 10 10 11 20 1 3 -4 13 -8 21 -10 8 -2 21 -5 28 -6 6 -2 29 -7 50 -12 37 -7
43 -13 30 -31 -5 -5 0 -1 9 9 10 10 19 13 23 7 3 -5 16 -9 28 -9 43 2 132 -14
139 -25 6 -8 8 -8 8 0 0 14 42 13 52 -1 5 -7 8 -6 8 1 0 6 24 10 60 10 33 -1
60 2 60 6 0 5 5 8 11 8 5 0 7 -4 4 -10 -10 -17 7 -11 22 8 12 14 14 14 10 1
-3 -9 1 -16 8 -16 7 0 11 6 8 13 -3 8 2 11 14 9 10 -1 17 -8 15 -15 -1 -6 2
-9 8 -5 6 3 8 10 5 15 -8 13 22 19 35 7 10 -9 11 -9 6 1 -5 7 0 13 11 14 10 1
25 2 33 3 8 1 25 7 38 13 12 7 22 10 22 6 0 -3 6 -1 14 5 11 9 15 9 19 -1 4
-9 6 -7 6 4 1 11 8 15 26 14 13 -2 22 0 20 4 -4 6 35 27 65 34 3 1 14 7 25 13
19 11 19 13 -11 45 -17 18 -30 40 -27 48 3 11 2 12 -4 3 -6 -9 -34 13 -96 75
-49 48 -92 94 -97 102 -5 8 -10 12 -10 8 0 -4 -21 15 -47 43 -27 28 -47 55
-45 61 1 5 -2 7 -8 3 -13 -8 -82 64 -73 78 3 5 2 7 -4 4 -11 -7 -93 65 -93 82
0 6 -4 11 -10 11 -12 0 -150 138 -150 150 0 6 -4 10 -9 10 -12 0 -131 119
-131 131 0 5 -5 9 -11 9 -6 0 -9 7 -5 15 3 8 1 14 -5 12 -6 -1 -21 17 -34 39
-18 32 -21 45 -12 54 7 7 8 10 2 8 -5 -3 -16 0 -23 8 -10 11 -10 14 0 14 10 0
10 2 0 9 -9 5 -14 29 -14 67 0 80 1 86 11 79 6 -3 8 3 6 14 -5 24 15 91 27 91
5 0 6 5 2 11 -4 7 0 9 14 5 11 -4 23 -2 27 3 3 7 0 8 -9 5 -28 -11 -17 22 16
50 17 14 28 26 22 26 -11 0 18 20 30 20 5 0 3 -6 -3 -13 -8 -10 -7 -14 3 -14
10 0 13 9 9 26 -2 14 -1 22 3 19 3 -4 13 0 21 8 9 8 21 13 28 10 8 -3 16 2 19
9 3 9 12 12 22 8 12 -4 15 -3 10 5 -5 8 0 12 13 13 21 2 39 5 44 9 9 7 64 3
60 -5 -3 -5 -1 -5 6 1 16 15 61 5 69 -14 5 -13 7 -12 13 4 6 18 8 17 17 -6 6
-14 11 -20 11 -13 1 9 8 10 24 4 12 -5 21 -14 20 -20 -2 -6 4 -8 11 -5 18 7
68 -35 59 -49 -4 -6 0 -8 10 -4 20 8 53 -36 41 -54 -4 -8 -3 -9 5 -5 14 9 74
-51 65 -65 -3 -5 -2 -8 3 -7 11 4 73 -48 73 -60 0 -6 7 -13 16 -16 8 -3 12
-10 9 -16 -4 -6 1 -7 11 -3 12 4 15 3 10 -5 -4 -7 -1 -12 6 -12 16 0 48 -35
48 -52 0 -6 2 -9 5 -6 10 9 146 -133 139 -144 -4 -6 -3 -8 3 -5 5 3 22 -5 38
-19 15 -13 24 -24 19 -25 -5 0 1 -4 14 -9 12 -5 22 -14 22 -20 0 -6 -4 -8 -10
-5 -5 3 -10 1 -10 -5 0 -7 6 -10 13 -7 19 7 49 -13 43 -29 -3 -8 -2 -13 3 -10
11 7 53 -29 44 -38 -3 -3 0 -6 7 -6 7 0 24 -12 37 -26 20 -22 22 -29 11 -42
-10 -14 -10 -15 2 -4 17 14 34 16 25 2 -3 -5 1 -10 10 -10 9 0 13 -4 10 -10
-3 -5 -1 -10 5 -10 6 0 25 -14 42 -30 26 -27 28 -33 17 -48 -13 -15 -12 -16 4
-3 15 12 20 10 42 -15 14 -16 25 -23 25 -16 0 7 4 10 10 7 6 -3 7 1 4 10 -4 8
0 22 7 31 7 9 14 23 15 31 2 8 10 23 18 32 9 10 13 21 10 24 -4 4 -1 13 6 22
7 8 10 15 6 15 -3 0 0 16 8 35 9 20 15 38 16 40 0 3 0 6 1 8 0 1 2 11 4 22 2
11 7 36 11 55 3 19 8 46 10 58 1 13 11 33 21 45 18 21 18 21 -1 7 -18 -14 -19
-13 -13 3 4 10 7 37 7 58 0 30 3 38 13 33 9 -6 9 -4 1 7 -6 8 -12 47 -13 88
-1 41 -4 78 -8 84 -3 5 -7 23 -8 40 -5 52 -16 111 -25 127 -5 8 -4 23 2 33 7
13 7 17 0 13 -14 -8 -44 85 -36 110 5 15 4 16 -5 4 -8 -12 -11 -11 -16 5 -12
37 -66 142 -101 194 -19 29 -34 55 -34 57 0 2 -8 12 -17 22 -48 50 -118 137
-116 144 2 5 -1 7 -6 5 -5 -1 -24 12 -42 28 -19 17 -50 42 -69 55 -19 14 -42
32 -53 41 -10 9 -38 27 -62 39 -25 13 -45 27 -45 32 0 4 -3 7 -7 7 -14 -3 -73
25 -73 34 0 4 -3 6 -8 3 -4 -2 -25 4 -47 14 -22 11 -45 19 -52 20 -6 0 -24 5
-40 12 -35 14 -39 15 -64 17 -11 0 -18 4 -16 9 3 4 -11 8 -31 9 -21 1 -48 3
-62 4 -14 1 -29 5 -35 9 -14 10 -267 11 -303 1 -17 -5 -34 -5 -39 0 -5 5 -13
5 -18 0z"/>
<path d="M4390 5879 c0 -6 -4 -8 -8 -5 -18 11 -279 -62 -309 -87 -7 -5 -13 -7
-13 -4 0 3 -27 -10 -61 -29 -33 -18 -66 -31 -72 -27 -6 3 -7 1 -3 -5 4 -7 3
-12 -3 -12 -5 0 -16 -6 -23 -13 -7 -6 -31 -24 -53 -38 -22 -15 -53 -38 -68
-53 -15 -14 -30 -26 -33 -26 -7 0 -99 -96 -126 -132 -13 -16 -28 -35 -33 -41
-49 -54 -158 -250 -147 -262 4 -5 0 -6 -9 -2 -13 4 -16 1 -12 -13 3 -10 -1
-29 -8 -41 -7 -13 -14 -26 -14 -29 -3 -27 -31 -107 -39 -112 -7 -5 -6 -8 3 -8
10 0 11 -3 3 -13 -6 -7 -11 -22 -12 -32 -1 -36 -8 -80 -14 -95 -3 -8 -5 -66
-3 -128 1 -86 -1 -111 -10 -107 -10 3 -10 -1 -3 -15 6 -11 14 -28 19 -38 5
-11 5 -25 1 -32 -5 -8 -3 -21 5 -33 7 -10 11 -26 8 -37 -3 -10 0 -21 7 -25 8
-5 7 -11 -2 -23 -7 -9 -8 -13 -2 -10 12 8 48 -117 39 -133 -4 -5 -1 -8 5 -7 7
2 18 -13 25 -32 7 -19 19 -48 26 -65 7 -16 12 -33 11 -36 0 -3 6 -6 14 -6 7 0
14 6 14 14 0 7 5 13 10 13 6 0 23 12 37 28 14 15 30 26 35 24 5 -1 7 2 3 8 -3
6 4 14 17 19 13 6 19 10 14 10 -6 1 37 47 94 104 57 56 107 101 112 100 4 -2
7 0 5 5 -1 4 8 18 21 32 12 13 22 28 22 32 0 5 5 6 10 3 8 -5 7 -12 -2 -23
-10 -15 -10 -15 2 -4 8 7 15 20 15 30 0 9 10 22 23 28 13 6 22 13 20 15 -5 8
29 49 35 42 4 -3 7 1 7 11 0 13 5 16 19 11 11 -3 22 -1 26 4 4 7 -1 8 -12 4
-10 -3 8 20 40 52 31 32 57 61 57 66 0 5 7 5 17 2 10 -4 14 -2 10 4 -9 14 19
37 32 28 6 -3 9 0 6 7 -6 19 32 61 47 52 7 -4 10 -4 6 0 -4 5 4 20 18 34 13
15 24 30 24 34 0 5 7 8 17 8 9 0 14 3 10 6 -10 10 65 75 80 69 8 -2 11 -1 8 5
-3 5 8 16 26 25 23 12 29 13 24 3 -3 -7 0 -5 8 4 11 14 16 15 26 5 10 -9 11
-8 5 8 -8 20 -8 20 21 1 17 -10 24 -13 18 -5 -19 19 -16 34 4 18 10 -8 14 -9
10 -2 -4 6 -3 14 3 18 5 3 10 0 10 -7 0 -9 3 -9 10 2 9 13 10 13 10 0 0 -9 3
-11 8 -5 8 11 44 11 80 0 15 -5 21 -13 17 -23 -4 -12 -2 -12 8 -3 17 13 93
-10 90 -28 -2 -6 0 -10 5 -9 4 1 17 -1 30 -6 21 -7 26 -17 23 -43 -1 -7 3 -13
9 -13 6 0 8 5 5 10 -3 6 -2 10 4 10 5 0 13 -9 16 -20 3 -11 10 -20 15 -20 12
0 42 -69 35 -80 -4 -6 -3 -10 2 -9 20 3 27 -2 13 -11 -13 -8 -13 -10 1 -10 9
0 16 -6 16 -12 1 -7 3 -30 6 -51 5 -33 3 -38 -11 -33 -15 5 -15 4 1 -8 13 -10
16 -22 12 -47 -9 -52 -16 -70 -25 -64 -5 3 -12 1 -15 -5 -4 -6 -3 -10 2 -9 19
3 27 -2 15 -10 -7 -4 -14 -15 -16 -23 -6 -46 -166 -225 -188 -212 -7 4 -8 2
-4 -4 8 -14 -358 -385 -369 -374 -5 4 -5 2 -2 -4 7 -12 -65 -87 -76 -79 -4 3
-5 2 -2 -1 2 -4 -54 -65 -125 -137 -72 -71 -130 -131 -130 -132 0 -8 110 -54
121 -51 3 0 12 -4 20 -10 13 -11 129 -45 157 -47 6 0 12 -4 12 -8 0 -4 10 -7
23 -7 67 0 88 -5 82 -20 -4 -12 -3 -13 10 -2 12 10 18 10 32 -1 9 -8 14 -9 10
-3 -5 9 30 11 127 10 74 0 132 2 129 7 -2 4 11 7 30 7 18 0 37 3 40 7 11 11
61 11 75 0 9 -7 11 -6 6 6 -4 12 -1 15 15 12 12 -2 21 0 21 6 0 5 9 9 19 9 11
0 40 9 65 20 25 10 46 16 46 12 0 -4 4 -2 8 3 12 16 142 76 153 70 5 -3 6 2 3
12 -5 16 -3 15 12 -2 12 -14 15 -15 11 -4 -6 19 29 53 48 45 9 -3 12 0 9 9 -3
7 3 16 15 20 12 3 21 11 21 17 0 6 3 8 6 5 4 -3 19 7 34 23 16 17 30 30 33 30
5 0 74 69 125 125 12 13 22 29 22 35 0 5 4 10 8 10 5 0 30 34 57 75 26 41 52
75 57 75 5 0 7 4 4 9 -5 8 15 55 55 133 5 10 9 27 9 38 0 11 4 20 8 20 5 0 9
6 10 13 2 22 7 42 15 55 5 6 5 17 2 22 -3 6 -1 10 6 10 7 0 9 3 6 7 -4 3 -1
13 6 21 10 13 9 14 -2 7 -10 -5 -12 -4 -7 4 9 14 19 60 18 83 0 10 3 20 8 23
14 9 13 295 -2 313 -11 13 -11 14 2 7 12 -7 13 -6 4 6 -7 8 -14 33 -18 57 -3
24 -9 48 -12 54 -5 7 -2 8 5 3 7 -4 5 4 -4 19 -10 14 -14 26 -9 26 4 0 3 5 -4
12 -16 16 -15 31 1 23 6 -4 5 -1 -4 7 -9 7 -19 26 -23 42 -4 15 -16 47 -27 71
-11 23 -21 52 -22 63 0 11 -4 19 -8 16 -4 -2 -15 13 -24 34 -10 20 -28 51 -41
69 -13 17 -24 36 -24 41 0 6 -3 12 -7 14 -16 7 -62 76 -55 83 4 3 2 5 -4 3 -6
-2 -37 25 -68 60 -31 34 -56 60 -56 57 0 -5 -44 31 -82 68 -10 9 -22 17 -26
17 -5 0 -17 8 -28 18 -20 18 -50 36 -125 74 -24 13 -47 27 -50 31 -3 5 -9 8
-13 7 -3 -1 -32 8 -63 20 -57 21 -169 53 -233 66 -57 12 -390 14 -390 3z"/>
<path d="M1736 4993 c-6 -14 -5 -15 5 -6 7 7 10 15 7 18 -3 3 -9 -2 -12 -12z"/>
<path d="M1760 5005 c0 -2 6 -8 13 -14 10 -8 14 -7 14 2 0 8 -6 14 -14 14 -7
0 -13 -1 -13 -2z"/>
<path d="M1850 5000 c0 -4 7 -7 15 -6 23 3 26 12 5 13 -11 1 -20 -2 -20 -7z"/>
<path d="M4558 4998 c-9 -5 -6 -7 9 -5 12 2 25 6 28 8 8 9 -23 6 -37 -3z"/>
<path d="M1856 4967 c3 -10 9 -15 12 -12 3 3 0 11 -7 18 -10 9 -11 8 -5 -6z"/>
<path d="M1894 4969 c-3 -6 -2 -15 3 -20 5 -5 9 -1 9 11 0 23 -2 24 -12 9z"/>
<path d="M4675 4969 c-4 -6 -5 -12 -2 -15 2 -3 7 2 10 11 7 17 1 20 -8 4z"/>
<path d="M4710 4976 c0 -2 7 -9 15 -16 9 -7 15 -8 15 -2 0 5 -7 12 -15 16 -8
3 -15 4 -15 2z"/>
<path d="M1716 4958 c3 -5 10 -6 15 -3 13 9 11 12 -6 12 -8 0 -12 -4 -9 -9z"/>
<path d="M1750 4958 c0 -4 4 -8 9 -8 6 0 12 4 15 8 3 5 -1 9 -9 9 -8 0 -15 -4
-15 -9z"/>
<path d="M1933 4955 c0 -8 4 -12 9 -9 5 3 6 10 3 15 -9 13 -12 11 -12 -6z"/>
<path d="M3293 4955 c0 -8 4 -12 9 -9 5 3 6 10 3 15 -9 13 -12 11 -12 -6z"/>
<path d="M4481 4956 c-8 -10 -9 -16 -1 -21 6 -4 9 -1 8 7 -2 7 3 12 10 10 8
-1 11 2 7 8 -8 13 -10 13 -24 -4z"/>
<path d="M1673 4933 c0 -9 4 -10 14 -2 7 6 13 12 13 14 0 1 -6 2 -13 2 -8 0
-14 -6 -14 -14z"/>
<path d="M4590 4946 c0 -2 7 -7 16 -10 8 -3 12 -2 9 4 -6 10 -25 14 -25 6z"/>
<path d="M4350 4936 c0 -2 8 -10 18 -17 15 -13 16 -12 3 4 -13 16 -21 21 -21
13z"/>
<path d="M1967 4917 c3 -4 8 -6 11 -3 3 3 10 1 17 -4 8 -7 12 -6 12 3 0 7 -11
13 -23 13 -12 0 -20 -4 -17 -9z"/>
<path d="M3036 4918 c3 -5 10 -6 15 -3 13 9 11 12 -6 12 -8 0 -12 -4 -9 -9z"/>
<path d="M4410 4919 c0 -5 5 -7 10 -4 6 3 10 8 10 11 0 2 -4 4 -10 4 -5 0 -10
-5 -10 -11z"/>
<path d="M4670 4921 c0 -6 4 -13 10 -16 6 -3 7 1 4 9 -7 18 -14 21 -14 7z"/>
<path d="M1850 4900 c0 -5 5 -10 11 -10 5 0 7 5 4 10 -3 6 -8 10 -11 10 -2 0
-4 -4 -4 -10z"/>
<path d="M4353 4903 c4 -3 1 -13 -6 -22 -11 -14 -10 -14 5 -2 16 12 16 31 1
31 -4 0 -3 -3 0 -7z"/>
<path d="M4515 4899 c-3 -4 2 -6 10 -5 21 3 28 13 10 13 -9 0 -18 -4 -20 -8z"/>
<path d="M1629 4883 c-13 -16 -12 -17 4 -4 16 13 21 21 13 21 -2 0 -10 -8 -17
-17z"/>
<path d="M1755 4891 c-3 -5 -2 -12 3 -15 5 -3 9 1 9 9 0 17 -3 19 -12 6z"/>
<path d="M1796 4878 c3 -5 10 -6 15 -3 13 9 11 12 -6 12 -8 0 -12 -4 -9 -9z"/>
<path d="M4305 4880 c-3 -6 1 -7 9 -4 18 7 21 14 7 14 -6 0 -13 -4 -16 -10z"/>
<path d="M4710 4886 c0 -2 7 -7 16 -10 8 -3 12 -2 9 4 -6 10 -25 14 -25 6z"/>
<path d="M1950 4860 c0 -5 5 -10 11 -10 5 0 7 5 4 10 -3 6 -8 10 -11 10 -2 0
-4 -4 -4 -10z"/>
<path d="M4710 4861 c0 -6 4 -13 10 -16 6 -3 7 1 4 9 -7 18 -14 21 -14 7z"/>
<path d="M4335 4820 c-3 -5 -1 -10 4 -10 6 0 11 5 11 10 0 6 -2 10 -4 10 -3 0
-8 -4 -11 -10z"/>
<path d="M1513 4807 c0 -8 6 -14 14 -14 9 0 10 4 2 14 -6 7 -12 13 -14 13 -1
0 -2 -6 -2 -13z"/>
<path d="M2150 4760 c0 -5 5 -10 11 -10 5 0 7 5 4 10 -3 6 -8 10 -11 10 -2 0
-4 -4 -4 -10z"/>
<path d="M2180 4766 c0 -2 8 -10 18 -17 15 -13 16 -12 3 4 -13 16 -21 21 -21
13z"/>
<path d="M4210 4739 c0 -5 5 -7 10 -4 6 3 10 8 10 11 0 2 -4 4 -10 4 -5 0 -10
-5 -10 -11z"/>
<path d="M4255 4741 c-3 -5 -2 -12 3 -15 5 -3 9 1 9 9 0 17 -3 19 -12 6z"/>
<path d="M4213 4689 c-2 -23 3 -25 10 -4 4 8 3 16 -1 19 -4 3 -9 -4 -9 -15z"/>
<path d="M1465 4680 c-3 -6 1 -7 9 -4 18 7 21 14 7 14 -6 0 -13 -4 -16 -10z"/>
<path d="M2196 4638 c3 -5 10 -6 15 -3 13 9 11 12 -6 12 -8 0 -12 -4 -9 -9z"/>
<path d="M4135 4640 c-3 -5 -1 -10 4 -10 6 0 11 5 11 10 0 6 -2 10 -4 10 -3 0
-8 -4 -11 -10z"/>
<path d="M2296 4593 c-6 -14 -5 -15 5 -6 7 7 10 15 7 18 -3 3 -9 -2 -12 -12z"/>
<path d="M4790 4596 c0 -2 8 -10 18 -17 15 -13 16 -12 3 4 -13 16 -21 21 -21
13z"/>
<path d="M3993 4545 c0 -8 4 -12 9 -9 5 3 6 10 3 15 -9 13 -12 11 -12 -6z"/>
<path d="M4010 4520 c0 -5 5 -10 11 -10 5 0 7 5 4 10 -3 6 -8 10 -11 10 -2 0
-4 -4 -4 -10z"/>
<path d="M2450 4505 c0 -5 5 -17 10 -25 5 -8 10 -10 10 -5 0 6 -5 17 -10 25
-5 8 -10 11 -10 5z"/>
<path d="M2393 4455 c0 -8 4 -12 9 -9 5 3 6 10 3 15 -9 13 -12 11 -12 -6z"/>
<path d="M3907 4459 c7 -7 15 -10 18 -7 3 3 -2 9 -12 12 -14 6 -15 5 -6 -5z"/>
<path d="M5813 4449 c-2 -23 3 -25 10 -4 4 8 3 16 -1 19 -4 3 -9 -4 -9 -15z"/>
<path d="M2429 4443 c-13 -16 -12 -17 4 -4 9 7 17 15 17 17 0 8 -8 3 -21 -13z"/>
<path d="M2500 4446 c0 -2 8 -10 18 -17 15 -13 16 -12 3 4 -13 16 -21 21 -21
13z"/>
<path d="M3915 4420 c3 -5 8 -10 11 -10 2 0 4 5 4 10 0 6 -5 10 -11 10 -5 0
-7 -4 -4 -10z"/>
<path d="M2473 4405 c0 -8 4 -12 9 -9 5 3 6 10 3 15 -9 13 -12 11 -12 -6z"/>
<path d="M2506 4402 c-3 -5 1 -9 9 -9 8 0 12 4 9 9 -3 4 -7 8 -9 8 -2 0 -6 -4
-9 -8z"/>
<path d="M3035 4400 c3 -5 8 -10 11 -10 2 0 4 5 4 10 0 6 -5 10 -11 10 -5 0
-7 -4 -4 -10z"/>
<path d="M3850 4379 c0 -5 5 -7 10 -4 6 3 10 8 10 11 0 2 -4 4 -10 4 -5 0 -10
-5 -10 -11z"/>
<path d="M2510 4359 c0 -5 5 -7 10 -4 6 3 10 8 10 11 0 2 -4 4 -10 4 -5 0 -10
-5 -10 -11z"/>
<path d="M3316 4353 c-6 -14 -5 -15 5 -6 7 7 10 15 7 18 -3 3 -9 -2 -12 -12z"/>
<path d="M3029 4323 c-13 -16 -12 -17 4 -4 16 13 21 21 13 21 -2 0 -10 -8 -17
-17z"/>
<path d="M2573 4311 c0 -11 5 -18 9 -15 4 3 5 11 1 19 -7 21 -12 19 -10 -4z"/>
<path d="M5779 4288 c-5 -18 -6 -38 -1 -34 7 8 12 36 6 36 -2 0 -4 -1 -5 -2z"/>
<path d="M2590 4265 c0 -7 30 -13 34 -7 3 4 -4 9 -15 9 -10 1 -19 0 -19 -2z"/>
<path d="M3776 4258 c3 -4 11 -5 19 -1 21 7 19 12 -4 10 -11 0 -18 -5 -15 -9z"/>
<path d="M3673 4246 c0 -15 22 -15 34 0 4 5 4 6 -1 2 -5 -4 -14 -3 -21 2 -8 7
-12 5 -12 -4z"/>
<path d="M617 4235 c-4 -8 -3 -16 1 -19 4 -3 9 4 9 15 2 23 -3 25 -10 4z"/>
<path d="M3010 4240 c0 -5 5 -10 11 -10 5 0 7 5 4 10 -3 6 -8 10 -11 10 -2 0
-4 -4 -4 -10z"/>
<path d="M2650 4219 c0 -5 5 -7 10 -4 6 3 10 8 10 11 0 2 -4 4 -10 4 -5 0 -10
-5 -10 -11z"/>
<path d="M2695 4220 c3 -5 8 -10 11 -10 2 0 4 5 4 10 0 6 -5 10 -11 10 -5 0
-7 -4 -4 -10z"/>
<path d="M2695 4180 c3 -5 8 -10 11 -10 2 0 4 5 4 10 0 6 -5 10 -11 10 -5 0
-7 -4 -4 -10z"/>
<path d="M5746 4162 c-3 -5 1 -9 9 -9 8 0 12 4 9 9 -3 4 -7 8 -9 8 -2 0 -6 -4
-9 -8z"/>
<path d="M2735 4140 c-3 -5 -1 -10 4 -10 6 0 11 5 11 10 0 6 -2 10 -4 10 -3 0
-8 -4 -11 -10z"/>
<path d="M3610 4140 c0 -5 5 -10 11 -10 5 0 7 5 4 10 -3 6 -8 10 -11 10 -2 0
-4 -4 -4 -10z"/>
<path d="M3655 4141 c-3 -5 -2 -12 3 -15 5 -3 9 1 9 9 0 17 -3 19 -12 6z"/>
<path d="M2666 4122 c-3 -5 1 -9 9 -9 8 0 12 4 9 9 -3 4 -7 8 -9 8 -2 0 -6 -4
-9 -8z"/>
<path d="M2775 4099 c-3 -4 2 -6 10 -5 21 3 28 13 10 13 -9 0 -18 -4 -20 -8z"/>
<path d="M3406 4102 c-3 -5 1 -9 9 -9 8 0 12 4 9 9 -3 4 -7 8 -9 8 -2 0 -6 -4
-9 -8z"/>
<path d="M5690 4099 c0 -5 5 -7 10 -4 6 3 10 8 10 11 0 2 -4 4 -10 4 -5 0 -10
-5 -10 -11z"/>
<path d="M2830 4060 c0 -5 5 -10 11 -10 5 0 7 5 4 10 -3 6 -8 10 -11 10 -2 0
-4 -4 -4 -10z"/>
<path d="M5695 4060 c3 -5 8 -10 11 -10 2 0 4 5 4 10 0 6 -5 10 -11 10 -5 0
-7 -4 -4 -10z"/>
<path d="M670 4040 c0 -5 5 -10 11 -10 5 0 7 5 4 10 -3 6 -8 10 -11 10 -2 0
-4 -4 -4 -10z"/>
<path d="M5655 4001 c-3 -5 -2 -12 3 -15 5 -3 9 1 9 9 0 17 -3 19 -12 6z"/>
<path d="M5756 3993 c-6 -14 -5 -15 5 -6 7 7 10 15 7 18 -3 3 -9 -2 -12 -12z"/>
<path d="M735 3980 c3 -5 8 -10 11 -10 2 0 4 5 4 10 0 6 -5 10 -11 10 -5 0 -7
-4 -4 -10z"/>
<path d="M735 3939 c-3 -4 2 -6 10 -5 21 3 28 13 10 13 -9 0 -18 -4 -20 -8z"/>
<path d="M775 3900 c3 -5 8 -10 11 -10 2 0 4 5 4 10 0 6 -5 10 -11 10 -5 0 -7
-4 -4 -10z"/>
<path d="M5585 3880 c-3 -6 1 -7 9 -4 18 7 21 14 7 14 -6 0 -13 -4 -16 -10z"/>
<path d="M813 3815 c0 -8 4 -12 9 -9 5 3 6 10 3 15 -9 13 -12 11 -12 -6z"/>
<path d="M856 3822 c-3 -5 1 -9 9 -9 8 0 12 4 9 9 -3 4 -7 8 -9 8 -2 0 -6 -4
-9 -8z"/>
<path d="M5555 3820 c3 -5 8 -10 11 -10 2 0 4 5 4 10 0 6 -5 10 -11 10 -5 0
-7 -4 -4 -10z"/>
<path d="M856 3778 c3 -5 10 -6 15 -3 13 9 11 12 -6 12 -8 0 -12 -4 -9 -9z"/>
<path d="M5495 3741 c-3 -5 -2 -12 3 -15 5 -3 9 1 9 9 0 17 -3 19 -12 6z"/>
<path d="M946 3718 c3 -5 10 -6 15 -3 13 9 11 12 -6 12 -8 0 -12 -4 -9 -9z"/>
<path d="M913 3705 c0 -8 4 -12 9 -9 5 3 6 10 3 15 -9 13 -12 11 -12 -6z"/>
<path d="M987 3699 c7 -7 15 -10 18 -7 3 3 -2 9 -12 12 -14 6 -15 5 -6 -5z"/>
<path d="M5446 3698 c3 -5 10 -6 15 -3 13 9 11 12 -6 12 -8 0 -12 -4 -9 -9z"/>
<path d="M5395 3690 c-4 -6 -11 -7 -17 -4 -7 4 -8 2 -4 -5 6 -9 11 -9 22 0 14
11 18 19 10 19 -3 0 -8 -5 -11 -10z"/>
<path d="M995 3671 c-3 -5 -2 -12 3 -15 5 -3 9 1 9 9 0 17 -3 19 -12 6z"/>
<path d="M5333 3645 c0 -8 4 -12 9 -9 5 3 6 10 3 15 -9 13 -12 11 -12 -6z"/>
<path d="M5380 3646 c0 -2 8 -10 18 -17 15 -13 16 -12 3 4 -13 16 -21 21 -21
13z"/>
<path d="M1033 3605 c0 -8 4 -12 9 -9 5 3 6 10 3 15 -9 13 -12 11 -12 -6z"/>
<path d="M5239 3553 c-13 -16 -12 -17 4 -4 9 7 17 15 17 17 0 8 -8 3 -21 -13z"/>
<path d="M1070 3546 c0 -2 7 -7 16 -10 8 -3 12 -2 9 4 -6 10 -25 14 -25 6z"/>
<path d="M5140 3540 c-9 -6 -10 -10 -3 -10 6 0 15 5 18 10 8 12 4 12 -15 0z"/>
<path d="M5071 3507 c-8 -10 -7 -14 2 -14 8 0 14 6 14 14 0 7 -1 13 -2 13 -2
0 -8 -6 -14 -13z"/>
<path d="M1215 3500 c3 -5 8 -10 11 -10 2 0 4 5 4 10 0 6 -5 10 -11 10 -5 0
-7 -4 -4 -10z"/>
<path d="M5156 3487 c3 -10 9 -15 12 -12 3 3 0 11 -7 18 -10 9 -11 8 -5 -6z"/>
<path d="M2356 3478 c3 -5 10 -6 15 -3 13 9 11 12 -6 12 -8 0 -12 -4 -9 -9z"/>
<path d="M5016 3482 c-3 -5 1 -9 9 -9 8 0 12 4 9 9 -3 4 -7 8 -9 8 -2 0 -6 -4
-9 -8z"/>
<path d="M1315 3471 c-3 -5 -2 -12 3 -15 5 -3 9 1 9 9 0 17 -3 19 -12 6z"/>
<path d="M5040 3460 c-9 -6 -10 -10 -3 -10 6 0 15 5 18 10 8 12 4 12 -15 0z"/>
<path d="M1373 3445 c0 -8 4 -12 9 -9 5 3 6 10 3 15 -9 13 -12 11 -12 -6z"/>
<path d="M4156 3447 c3 -10 9 -15 12 -12 3 3 0 11 -7 18 -10 9 -11 8 -5 -6z"/>
<path d="M4955 3450 c-4 -6 -11 -7 -17 -4 -7 4 -8 2 -4 -5 6 -9 11 -9 22 0 14
11 18 19 10 19 -3 0 -8 -5 -11 -10z"/>
<path d="M1510 3441 c0 -6 4 -13 10 -16 6 -3 7 1 4 9 -7 18 -14 21 -14 7z"/>
<path d="M4180 3446 c0 -2 8 -10 18 -17 15 -13 16 -12 3 4 -13 16 -21 21 -21
13z"/>
<path d="M4839 3438 c-5 -18 -6 -38 -1 -34 7 8 12 36 6 36 -2 0 -4 -1 -5 -2z"/>
<path d="M5055 3431 c-3 -5 -2 -12 3 -15 5 -3 9 1 9 9 0 17 -3 19 -12 6z"/>
<path d="M1335 3420 c3 -5 8 -10 11 -10 2 0 4 5 4 10 0 6 -5 10 -11 10 -5 0
-7 -4 -4 -10z"/>
<path d="M4794 3408 l-19 -23 23 19 c21 18 27 26 19 26 -2 0 -12 -10 -23 -22z"/>
<path d="M1415 3400 c-3 -5 -1 -10 4 -10 6 0 11 5 11 10 0 6 -2 10 -4 10 -3 0
-8 -4 -11 -10z"/>
<path d="M1637 3391 c-10 -14 -10 -14 3 -5 8 6 25 10 38 9 13 -1 25 1 27 5 9
14 -56 5 -68 -9z"/>
<path d="M2070 3405 c0 -7 30 -13 34 -7 3 4 -4 9 -15 9 -10 1 -19 0 -19 -2z"/>
<path d="M4610 3399 c0 -5 5 -7 10 -4 6 3 10 8 10 11 0 2 -4 4 -10 4 -5 0 -10
-5 -10 -11z"/>
<path d="M4686 3402 c-3 -5 1 -9 9 -9 8 0 12 4 9 9 -3 4 -7 8 -9 8 -2 0 -6 -4
-9 -8z"/>
<path d="M1793 3385 c0 -8 4 -12 9 -9 5 3 6 10 3 15 -9 13 -12 11 -12 -6z"/>
<path d="M1953 3385 c0 -8 4 -12 9 -9 5 3 6 10 3 15 -9 13 -12 11 -12 -6z"/>
<path d="M4933 3385 c0 -8 4 -12 9 -9 5 3 6 10 3 15 -9 13 -12 11 -12 -6z"/>
<path d="M4215 3380 c3 -5 8 -10 11 -10 2 0 4 5 4 10 0 6 -5 10 -11 10 -5 0
-7 -4 -4 -10z"/>
<path d="M4515 3380 c-3 -5 -1 -10 4 -10 6 0 11 5 11 10 0 6 -2 10 -4 10 -3 0
-8 -4 -11 -10z"/>
<path d="M4715 3381 c-3 -5 -2 -12 3 -15 5 -3 9 1 9 9 0 17 -3 19 -12 6z"/>
<path d="M4850 3379 c0 -5 5 -7 10 -4 6 3 10 8 10 11 0 2 -4 4 -10 4 -5 0 -10
-5 -10 -11z"/>
<path d="M4555 3371 c-3 -5 -2 -12 3 -15 5 -3 9 1 9 9 0 17 -3 19 -12 6z"/>
<path d="M1646 3358 c3 -5 10 -6 15 -3 13 9 11 12 -6 12 -8 0 -12 -4 -9 -9z"/>
<path d="M1759 3353 c-13 -16 -12 -17 4 -4 9 7 17 15 17 17 0 8 -8 3 -21 -13z"/>
<path d="M4390 3360 c0 -5 5 -10 11 -10 5 0 7 5 4 10 -3 6 -8 10 -11 10 -2 0
-4 -4 -4 -10z"/>
<path d="M1554 3342 c4 -3 14 -7 22 -8 9 -1 13 0 10 4 -4 3 -14 7 -22 8 -9 1
-13 0 -10 -4z"/>
<path d="M2010 3340 c0 -5 5 -10 11 -10 5 0 7 5 4 10 -3 6 -8 10 -11 10 -2 0
-4 -4 -4 -10z"/>
<path d="M4655 3340 c3 -5 8 -10 11 -10 2 0 4 5 4 10 0 6 -5 10 -11 10 -5 0
-7 -4 -4 -10z"/>
<path d="M4690 3339 c0 -5 5 -7 10 -4 6 3 10 8 10 11 0 2 -4 4 -10 4 -5 0 -10
-5 -10 -11z"/>
<path d="M4726 3342 c-3 -5 1 -9 9 -9 8 0 12 4 9 9 -3 4 -7 8 -9 8 -2 0 -6 -4
-9 -8z"/>
<path d="M4816 3342 c-2 -4 -1 -14 4 -22 7 -11 9 -9 7 8 -1 24 -3 26 -11 14z"/>
<path d="M4495 3320 c-3 -5 -1 -10 4 -10 6 0 11 5 11 10 0 6 -2 10 -4 10 -3 0
-8 -4 -11 -10z"/>
<path d="M1756 3233 c-6 -14 -5 -15 5 -6 7 7 10 15 7 18 -3 3 -9 -2 -12 -12z"/>
<path d="M4580 3246 c0 -2 8 -10 18 -17 15 -13 16 -12 3 4 -13 16 -21 21 -21
13z"/>
<path d="M1662 3139 c2 -7 -9 -13 -27 -14 -16 0 -36 -4 -42 -8 -8 -5 -13 -3
-13 5 0 9 -3 9 -8 2 -4 -6 -37 -18 -74 -27 -37 -9 -96 -28 -132 -42 -36 -15
-70 -23 -76 -20 -6 4 -9 1 -8 -7 2 -7 -7 -14 -19 -16 -12 -2 -27 -10 -33 -18
-7 -8 -16 -14 -21 -14 -4 0 -35 -18 -68 -40 -33 -22 -65 -40 -72 -40 -7 0 -10
-3 -6 -6 3 -4 -16 -24 -44 -46 -27 -21 -71 -62 -97 -90 -26 -28 -59 -63 -74
-79 -14 -15 -23 -30 -20 -33 3 -3 0 -6 -6 -6 -7 0 -12 -7 -12 -15 0 -9 -6 -18
-14 -21 -8 -3 -16 -15 -19 -26 -3 -11 -10 -17 -16 -14 -6 4 -8 -2 -6 -14 2
-12 -1 -20 -10 -20 -9 0 -12 -6 -8 -17 5 -13 3 -15 -13 -9 -15 6 -16 4 -7 -5
15 -15 -13 -63 -31 -52 -6 4 -5 -1 3 -10 9 -12 10 -17 2 -17 -7 0 -10 -4 -6
-9 3 -5 0 -15 -7 -23 -7 -7 -15 -22 -17 -33 -1 -11 -8 -29 -14 -40 -6 -11 -10
-26 -9 -32 2 -7 -2 -13 -7 -13 -6 0 -8 -6 -5 -14 3 -8 1 -17 -5 -20 -6 -4 -8
-13 -4 -21 3 -8 1 -15 -3 -15 -5 0 -9 -15 -8 -32 0 -18 -3 -37 -7 -43 -8 -12
-24 -125 -19 -140 1 -5 2 -17 2 -25 -5 -75 -1 -201 7 -227 5 -17 7 -34 4 -37
-3 -3 -2 -13 2 -23 9 -22 15 -49 18 -85 1 -16 6 -28 11 -28 4 0 6 -7 2 -15 -3
-8 -1 -15 5 -15 6 0 9 -7 5 -15 -3 -8 -1 -15 4 -15 4 0 12 -14 15 -32 4 -17
18 -51 31 -76 26 -48 31 -78 12 -66 -7 4 -8 3 -4 -4 4 -6 13 -9 21 -5 9 3 15
-1 15 -10 0 -9 7 -23 16 -31 8 -9 12 -16 7 -16 -4 0 -3 -4 2 -8 21 -15 65 -89
62 -103 -2 -8 -2 -11 0 -6 3 4 10 7 15 7 6 0 8 -3 5 -6 -4 -4 8 -20 26 -35 27
-25 30 -31 17 -40 -13 -9 -13 -10 2 -6 10 4 27 -6 45 -26 17 -18 49 -48 73
-67 75 -62 80 -67 72 -75 -4 -5 1 -5 11 -2 11 4 20 1 23 -8 4 -8 13 -15 20
-15 8 0 17 -6 20 -14 3 -8 12 -12 20 -9 8 3 14 1 14 -4 0 -9 85 -55 157 -84
17 -7 30 -16 27 -20 -2 -4 2 -7 9 -6 35 1 48 -4 41 -15 -6 -10 -4 -10 8 0 10
8 19 9 22 3 5 -7 62 -22 98 -25 4 -1 13 -7 19 -14 7 -6 18 -12 24 -12 5 0 3 5
-5 11 -12 9 -12 10 3 5 10 -3 25 -6 34 -6 10 0 13 -6 9 -17 -6 -17 -5 -17 7
-1 10 12 17 14 31 6 22 -12 266 -17 273 -5 2 4 9 5 14 1 5 -3 6 -10 3 -16 -4
-7 -2 -8 4 -4 7 4 12 14 12 23 0 12 7 14 30 10 17 -4 30 -2 30 3 0 5 8 8 18 8
22 -1 73 10 80 16 3 3 11 1 19 -6 7 -6 16 -8 20 -4 3 3 1 6 -6 6 -7 0 -10 4
-6 10 3 5 12 7 20 3 9 -3 15 1 15 8 0 12 2 12 9 1 7 -11 9 -11 14 1 3 8 20 18
37 22 18 4 52 16 77 27 38 17 47 18 55 7 7 -11 8 -9 4 4 -4 13 0 20 14 24 11
3 20 9 20 14 0 5 6 9 13 9 17 0 169 106 180 126 4 8 12 12 17 9 4 -3 11 2 14
11 3 8 11 12 17 8 7 -4 9 -3 6 3 -3 5 11 25 31 45 44 41 63 64 117 138 21 30
42 57 45 60 3 3 13 22 22 42 11 23 25 38 35 38 13 0 14 3 6 8 -10 6 -10 12 2
28 8 10 15 27 15 37 0 9 8 17 18 17 13 0 14 2 3 9 -9 6 -10 11 -2 15 6 4 11
13 11 20 0 8 8 31 17 52 9 22 16 45 14 53 -1 7 2 10 7 7 5 -3 7 6 4 19 -2 14
0 25 6 25 6 0 8 10 4 22 -3 11 -1 19 4 16 5 -4 10 10 10 30 2 70 17 157 28
164 8 6 8 8 0 8 -16 0 -16 170 0 170 6 0 5 4 -3 9 -8 5 -12 18 -8 30 3 12 1
19 -4 15 -5 -3 -9 3 -10 13 0 10 -3 32 -6 48 -3 17 -6 41 -7 55 -1 14 -4 27
-8 30 -4 3 -9 15 -11 25 -2 11 -7 29 -11 40 -5 11 -14 36 -21 56 -8 20 -11 39
-8 43 4 3 1 6 -5 6 -7 0 -12 9 -12 20 0 11 -4 20 -10 20 -5 0 -10 8 -10 19 0
10 -6 23 -13 29 -10 9 -37 -12 -117 -93 -57 -57 -109 -101 -114 -98 -6 4 -8 2
-3 -2 10 -11 -164 -186 -177 -178 -6 3 -8 3 -4 -2 10 -11 -122 -146 -135 -138
-6 3 -7 2 -4 -4 3 -5 -29 -44 -71 -85 -42 -41 -112 -112 -155 -157 -45 -47
-83 -79 -89 -75 -7 4 -8 3 -4 -4 6 -10 -60 -61 -88 -67 -6 -1 -19 -5 -29 -10
-10 -4 -24 -2 -35 6 -15 12 -16 12 -4 -2 10 -14 10 -18 -3 -23 -11 -4 -14 -2
-9 7 6 9 5 9 -8 0 -18 -16 -97 -15 -117 1 -11 8 -13 8 -8 -1 5 -8 1 -8 -18 0
-14 7 -23 18 -20 25 3 8 0 10 -8 5 -21 -13 -39 -12 -33 2 3 9 0 12 -9 8 -12
-4 -70 33 -111 72 -20 20 -63 93 -57 99 3 3 -1 8 -9 11 -10 4 -15 17 -13 36 1
16 -2 29 -9 29 -10 0 -11 21 -7 138 1 13 5 21 10 18 5 -3 9 0 8 7 -1 38 4 49
19 43 14 -5 15 -4 4 9 -10 12 -10 15 0 15 8 0 10 3 7 6 -7 7 23 64 34 64 4 0
9 9 12 21 3 12 10 18 17 14 6 -3 9 -2 8 2 -3 10 709 728 722 728 5 0 12 4 17
9 5 5 2 6 -7 2 -8 -5 6 13 33 39 26 25 47 49 47 53 0 8 -137 70 -165 74 -11 2
-22 6 -25 10 -3 3 -18 8 -35 11 -16 3 -37 8 -45 11 -28 10 -94 22 -150 25 -13
1 -13 2 0 11 9 6 10 10 3 10 -6 0 -15 -5 -18 -10 -5 -8 -11 -8 -19 -1 -7 6
-16 8 -20 4 -8 -8 -126 -11 -126 -3 0 3 -18 5 -39 5 -22 0 -37 -3 -34 -7 6
-11 -5 -10 -28 2 -14 8 -19 8 -17 -1z"/>
<path d="M4485 3141 c-3 -5 -18 -8 -35 -7 -16 1 -30 -1 -30 -4 0 -3 -10 -7
-22 -7 -13 -1 -41 -5 -63 -8 -22 -4 -48 -7 -57 -8 -10 -1 -18 -5 -18 -10 0 -5
-7 -7 -15 -4 -8 4 -17 2 -21 -4 -3 -6 -12 -8 -19 -5 -8 3 -15 1 -17 -4 -2 -5
-12 -11 -23 -13 -40 -8 -165 -66 -165 -77 0 -3 31 -37 69 -75 38 -38 67 -73
65 -77 -3 -5 0 -7 8 -6 7 2 12 -3 10 -10 -1 -6 4 -11 10 -10 7 2 12 -3 10 -10
-1 -8 1 -11 6 -8 12 7 64 -48 55 -58 -5 -4 -1 -6 7 -4 9 2 14 -3 12 -12 -2 -8
0 -12 4 -7 10 10 65 -43 57 -56 -3 -6 -1 -7 4 -4 14 9 37 -19 27 -34 -4 -8 -3
-9 4 -5 7 4 20 2 29 -3 10 -6 14 -11 8 -11 -5 0 1 -7 13 -16 14 -9 21 -22 18
-31 -3 -8 -1 -11 5 -8 12 8 100 -75 93 -87 -3 -5 -2 -8 3 -7 21 4 33 -2 33
-17 0 -8 4 -13 8 -10 5 3 15 -6 22 -19 7 -13 17 -22 22 -19 4 3 8 -2 8 -11 0
-10 5 -13 12 -9 8 5 9 2 5 -10 -4 -11 -3 -15 4 -11 11 8 40 -25 33 -37 -3 -4
3 -5 12 -1 12 4 15 3 10 -5 -4 -8 -1 -12 10 -12 10 0 14 -3 11 -7 -4 -3 2 -13
13 -20 11 -8 17 -19 14 -25 -4 -6 -2 -8 4 -4 6 3 22 -5 36 -19 14 -14 30 -25
36 -25 7 0 9 -9 5 -22 -4 -15 -3 -18 2 -10 12 16 57 -33 49 -53 -3 -9 0 -12
10 -8 8 3 14 -1 14 -11 0 -9 5 -16 11 -16 5 0 7 -4 4 -10 -3 -5 -1 -10 5 -10
7 0 10 -7 7 -15 -4 -8 -2 -17 4 -20 5 -4 7 -11 4 -16 -4 -5 -1 -9 6 -9 8 0 7
-5 -2 -17 -8 -9 -9 -14 -3 -10 15 9 11 -168 -4 -186 -7 -8 -9 -17 -5 -20 3 -4
1 -7 -6 -7 -7 0 -9 -4 -6 -10 3 -5 1 -10 -4 -10 -6 0 -11 -9 -11 -20 0 -11 -7
-23 -15 -26 -8 -4 -15 -10 -15 -15 0 -17 -38 -51 -49 -45 -7 5 -8 1 -4 -10 4
-12 3 -15 -5 -10 -7 4 -12 2 -12 -3 0 -16 -100 -63 -121 -58 -11 3 -17 1 -13
-4 6 -10 -179 -13 -190 -2 -3 4 -17 8 -29 10 -12 2 -23 8 -25 13 -2 6 -11 10
-20 10 -24 1 -75 48 -66 62 4 7 3 8 -4 4 -7 -4 -23 4 -37 18 -14 15 -23 26
-20 26 4 0 -16 22 -43 49 -28 27 -48 52 -44 55 3 3 1 6 -5 6 -15 0 -63 47 -63
61 0 7 -3 10 -6 6 -7 -7 -50 35 -47 45 2 5 -1 8 -5 8 -18 0 -93 81 -86 92 4 6
3 8 -4 4 -11 -6 -162 137 -162 154 0 6 -5 10 -11 10 -14 0 -79 67 -71 74 3 3
0 6 -6 6 -7 0 -62 50 -123 111 -103 103 -111 109 -124 92 -8 -10 -15 -24 -15
-30 0 -7 -4 -13 -10 -13 -5 0 -9 -3 -8 -7 2 -7 -11 -50 -39 -123 -4 -8 -8 -26
-10 -40 -2 -13 -9 -30 -15 -37 -6 -7 -8 -13 -6 -13 11 0 -13 -94 -25 -102 -9
-6 -9 -8 2 -8 11 0 11 -3 0 -17 -12 -15 -12 -16 1 -8 12 7 13 6 4 -6 -6 -8
-10 -29 -8 -46 1 -18 -2 -33 -6 -33 -5 0 -7 -6 -5 -12 3 -7 7 -56 9 -108 3
-52 7 -108 11 -123 4 -22 3 -27 -7 -21 -11 6 -11 5 0 -8 7 -9 15 -27 18 -39
19 -80 23 -97 32 -126 6 -17 8 -34 4 -37 -3 -3 1 -6 8 -6 7 0 10 -3 7 -6 -4
-4 0 -20 8 -35 8 -16 22 -42 30 -58 8 -15 12 -31 8 -35 -3 -3 -1 -6 6 -6 8 0
11 -8 8 -20 -3 -11 -1 -18 3 -15 12 7 33 -32 25 -45 -4 -6 -1 -9 7 -8 8 2 13
-6 12 -18 0 -16 4 -20 14 -16 10 3 13 1 8 -6 -4 -7 -2 -12 4 -12 7 0 10 -7 7
-14 -4 -10 -1 -13 9 -9 9 3 14 -2 14 -17 0 -11 5 -18 10 -15 6 3 10 1 10 -5 0
-6 13 -25 29 -43 85 -92 101 -109 101 -105 0 3 20 -13 44 -36 24 -22 41 -45
38 -50 -3 -5 0 -6 6 -2 7 4 19 1 27 -6 38 -32 39 -32 108 -70 12 -7 24 -15 27
-19 9 -9 85 -43 93 -41 4 1 7 -2 7 -8 0 -6 6 -9 13 -8 7 2 11 -5 10 -17 -1
-11 0 -14 3 -7 8 16 24 15 70 -5 22 -9 46 -18 54 -19 9 -2 43 -10 77 -18 34
-7 64 -11 67 -8 3 3 6 1 6 -4 0 -6 10 -11 23 -12 12 -1 40 -4 62 -7 35 -4 95
-5 223 -3 17 0 32 5 32 10 0 6 11 7 25 4 14 -4 25 -2 25 3 0 5 16 8 35 7 19
-1 35 2 35 7 0 4 15 6 34 4 24 -3 33 0 30 8 -3 6 2 12 10 12 8 0 13 -4 10 -8
-2 -4 1 -11 7 -15 8 -4 9 -3 5 4 -9 15 48 44 70 35 12 -4 15 -3 10 5 -4 7 -2
12 6 12 7 0 40 13 72 30 33 16 62 28 64 26 2 -3 12 4 23 15 10 10 26 19 34 19
8 0 15 4 15 10 0 5 16 17 35 26 19 9 35 21 35 26 0 5 4 7 8 4 5 -3 15 4 22 15
8 10 19 19 25 19 5 0 33 23 60 50 29 29 56 48 64 45 11 -4 12 -3 1 10 -12 15
-4 20 22 16 4 0 4 7 1 16 -5 13 -2 15 11 10 10 -4 15 -3 11 3 -5 8 8 28 41 64
5 6 13 19 17 28 4 11 13 16 24 12 15 -5 16 -4 3 5 -13 10 -13 12 0 21 8 5 11
10 7 10 -5 0 -2 7 5 15 26 29 38 45 37 47 -1 2 14 37 33 78 20 41 36 78 37 82
1 4 9 27 17 50 9 24 18 54 20 68 3 14 11 37 19 53 7 15 9 24 3 21 -7 -4 -7 0
-1 12 5 11 11 37 12 59 2 22 7 46 13 52 6 7 8 20 4 28 -4 11 -2 14 7 9 9 -6 9
-5 0 8 -7 8 -10 18 -6 22 7 7 6 157 -1 164 -3 2 0 16 5 30 8 21 7 23 -4 14
-10 -9 -14 -9 -14 1 -1 37 -13 116 -21 137 -5 14 -8 33 -7 43 2 9 -1 17 -7 17
-6 0 -8 7 -4 15 3 8 1 15 -4 15 -6 0 -9 3 -8 8 1 8 -9 39 -22 63 -5 10 -4 21
3 29 9 10 9 11 0 6 -7 -4 -17 3 -23 15 -10 17 -9 20 2 14 7 -5 2 4 -12 20 -14
16 -18 24 -10 20 12 -7 11 -4 -2 11 -9 10 -18 25 -20 33 -2 7 -13 25 -25 38
-11 13 -28 38 -37 56 -8 18 -29 47 -45 66 -16 19 -27 39 -24 44 3 6 1 7 -6 3
-6 -4 -14 0 -18 11 -4 10 -20 28 -35 41 -15 13 -25 28 -22 33 3 5 2 8 -3 7
-12 -4 -63 38 -63 51 0 6 -4 10 -9 8 -5 -1 -25 13 -44 31 -20 17 -39 32 -42
32 -5 0 -64 39 -75 50 -11 11 -136 70 -147 70 -7 0 -13 5 -13 11 0 5 -3 8 -8
6 -4 -3 -25 3 -46 14 -21 10 -42 16 -47 14 -4 -3 -10 -1 -14 5 -3 5 -15 10
-26 10 -10 0 -19 4 -19 10 0 5 -6 7 -13 4 -8 -3 -35 0 -60 6 -58 12 -114 22
-144 24 -12 1 -25 5 -28 8 -4 3 -19 3 -33 -1 -27 -7 -86 -5 -109 4 -7 2 -15 0
-18 -4z"/>
<path d="M2290 2860 c0 -5 5 -10 11 -10 5 0 7 5 4 10 -3 6 -8 10 -11 10 -2 0
-4 -4 -4 -10z"/>
<path d="M2213 2795 c0 -8 4 -12 9 -9 4 3 8 9 8 15 0 5 -4 9 -8 9 -5 0 -9 -7
-9 -15z"/>
<path d="M2217 2755 c-4 -8 -3 -16 1 -19 4 -3 9 4 9 15 2 23 -3 25 -10 4z"/>
<path d="M4150 2761 c0 -6 4 -13 10 -16 6 -3 7 1 4 9 -7 18 -14 21 -14 7z"/>
<path d="M2270 2720 c0 -5 5 -10 11 -10 5 0 7 5 4 10 -3 6 -8 10 -11 10 -2 0
-4 -4 -4 -10z"/>
<path d="M2095 2689 c-4 -6 -5 -12 -2 -15 2 -3 7 2 10 11 7 17 1 20 -8 4z"/>
<path d="M2037 2631 c-10 -14 -10 -14 4 -4 9 7 18 10 21 7 3 -3 8 -1 12 4 9
16 -24 9 -37 -7z"/>
<path d="M2095 2631 c-3 -5 -2 -12 3 -15 5 -3 9 1 9 9 0 17 -3 19 -12 6z"/>
<path d="M2046 2598 c3 -5 10 -6 15 -3 13 9 11 12 -6 12 -8 0 -12 -4 -9 -9z"/>
<path d="M1975 2569 c-4 -6 -5 -12 -2 -15 2 -3 7 2 10 11 7 17 1 20 -8 4z"/>
<path d="M4420 2526 c0 -2 8 -10 18 -17 15 -13 16 -12 3 4 -13 16 -21 21 -21
13z"/>
<path d="M1919 2493 c-13 -16 -12 -17 4 -4 9 7 17 15 17 17 0 8 -8 3 -21 -13z"/>
<path d="M1970 2499 c0 -5 5 -7 10 -4 6 3 10 8 10 11 0 2 -4 4 -10 4 -5 0 -10
-5 -10 -11z"/>
<path d="M1926 2458 c3 -5 10 -6 15 -3 13 9 11 12 -6 12 -8 0 -12 -4 -9 -9z"/>
<path d="M4516 2422 c-2 -4 -1 -14 4 -22 7 -11 9 -9 7 8 -1 24 -3 26 -11 14z"/>
<path d="M4550 2401 c0 -6 4 -13 10 -16 6 -3 7 1 4 9 -7 18 -14 21 -14 7z"/>
<path d="M4550 2362 c0 -5 7 -9 15 -9 8 0 12 4 9 9 -3 4 -9 8 -15 8 -5 0 -9
-4 -9 -8z"/>
<path d="M1810 2339 c0 -5 5 -7 10 -4 6 3 10 8 10 11 0 2 -4 4 -10 4 -5 0 -10
-5 -10 -11z"/>
<path d="M1766 2298 c3 -5 10 -6 15 -3 13 9 11 12 -6 12 -8 0 -12 -4 -9 -9z"/>
<path d="M1906 2298 c3 -5 10 -6 15 -3 13 9 11 12 -6 12 -8 0 -12 -4 -9 -9z"/>
<path d="M1730 2259 c0 -5 5 -7 10 -4 6 3 10 8 10 11 0 2 -4 4 -10 4 -5 0 -10
-5 -10 -11z"/>
<path d="M4599 2233 c-13 -16 -12 -17 4 -4 9 7 17 15 17 17 0 8 -8 3 -21 -13z"/>
<path d="M1615 2209 c-4 -6 -5 -12 -2 -15 2 -3 7 2 10 11 7 17 1 20 -8 4z"/>
<path d="M1556 2142 c-2 -4 -1 -14 4 -22 7 -11 9 -9 7 8 -1 24 -3 26 -11 14z"/>
<path d="M1610 2139 c0 -5 5 -7 10 -4 6 3 10 8 10 11 0 2 -4 4 -10 4 -5 0 -10
-5 -10 -11z"/>
<path d="M4736 2138 c3 -4 11 -5 19 -1 21 7 19 12 -4 10 -11 0 -18 -5 -15 -9z"/>
<path d="M3075 2131 c-3 -5 -2 -12 3 -15 5 -3 9 1 9 9 0 17 -3 19 -12 6z"/>
<path d="M1676 2118 c3 -5 10 -6 15 -3 13 9 11 12 -6 12 -8 0 -12 -4 -9 -9z"/>
<path d="M4820 2126 c0 -2 8 -10 18 -17 15 -13 16 -12 3 4 -13 16 -21 21 -21
13z"/>
<path d="M1613 2095 c0 -8 4 -12 9 -9 5 3 6 10 3 15 -9 13 -12 11 -12 -6z"/>
<path d="M4830 2080 c0 -5 5 -10 11 -10 5 0 7 5 4 10 -3 6 -8 10 -11 10 -2 0
-4 -4 -4 -10z"/>
<path d="M4870 2046 c0 -2 7 -7 16 -10 8 -3 12 -2 9 4 -6 10 -25 14 -25 6z"/>
<path d="M4795 2020 c-3 -5 -1 -10 4 -10 6 0 11 5 11 10 0 6 -2 10 -4 10 -3 0
-8 -4 -11 -10z"/>
<path d="M4895 1980 c3 -5 8 -10 11 -10 2 0 4 5 4 10 0 6 -5 10 -11 10 -5 0
-7 -4 -4 -10z"/>
<path d="M1486 1938 c3 -5 10 -6 15 -3 13 9 11 12 -6 12 -8 0 -12 -4 -9 -9z"/>
<path d="M4896 1938 c3 -5 10 -6 15 -3 13 9 11 12 -6 12 -8 0 -12 -4 -9 -9z"/>
<path d="M514 1920 c0 -13 4 -16 10 -10 7 7 7 13 0 20 -6 6 -10 3 -10 -10z"/>
<path d="M4896 1902 c-3 -5 1 -9 9 -9 8 0 12 4 9 9 -3 4 -7 8 -9 8 -2 0 -6 -4
-9 -8z"/>
<path d="M3300 1880 c-9 -6 -10 -10 -3 -10 6 0 15 5 18 10 8 12 4 12 -15 0z"/>
<path d="M3195 1841 c-3 -5 -2 -12 3 -15 5 -3 9 1 9 9 0 17 -3 19 -12 6z"/>
<path d="M4879 1813 c-12 -16 -12 -17 2 -6 9 7 20 9 24 5 5 -4 5 -1 1 6 -9 16
-11 15 -27 -5z"/>
<path d="M1487 1799 c7 -7 15 -10 18 -7 3 3 -2 9 -12 12 -14 6 -15 5 -6 -5z"/>
<path d="M3290 1806 c0 -2 7 -7 16 -10 8 -3 12 -2 9 4 -6 10 -25 14 -25 6z"/>
<path d="M3079 1753 c-13 -16 -12 -17 4 -4 16 13 21 21 13 21 -2 0 -10 -8 -17
-17z"/>
<path d="M3190 1759 c0 -5 5 -7 10 -4 6 3 10 8 10 11 0 2 -4 4 -10 4 -5 0 -10
-5 -10 -11z"/>
<path d="M5830 1766 c0 -2 7 -7 16 -10 8 -3 12 -2 9 4 -6 10 -25 14 -25 6z"/>
<path d="M3053 1711 c0 -11 5 -18 9 -15 4 3 5 11 1 19 -7 21 -12 19 -10 -4z"/>
<path d="M3054 1656 c1 -8 5 -18 8 -22 4 -3 5 1 4 10 -1 8 -5 18 -8 22 -4 3
-5 -1 -4 -10z"/>
<path d="M566 1622 c-3 -5 1 -9 9 -9 8 0 12 4 9 9 -3 4 -7 8 -9 8 -2 0 -6 -4
-9 -8z"/>
<path d="M5760 1500 c-12 -7 -10 -9 7 -7 12 0 19 5 17 9 -6 10 -6 10 -24 -2z"/>
<path d="M616 1482 c-2 -4 -1 -14 4 -22 7 -11 9 -9 7 8 -1 24 -3 26 -11 14z"/>
<path d="M3315 1480 c-3 -5 -1 -10 4 -10 6 0 11 5 11 10 0 6 -2 10 -4 10 -3 0
-8 -4 -11 -10z"/>
<path d="M3000 1440 c-9 -6 -10 -10 -3 -10 6 0 15 5 18 10 8 12 4 12 -15 0z"/>
<path d="M5709 1403 c-13 -16 -12 -17 4 -4 16 13 21 21 13 21 -2 0 -10 -8 -17
-17z"/>
<path d="M655 1380 c3 -5 8 -10 11 -10 2 0 4 5 4 10 0 6 -5 10 -11 10 -5 0 -7
-4 -4 -10z"/>
<path d="M2946 1318 c3 -5 10 -6 15 -3 13 9 11 12 -6 12 -8 0 -12 -4 -9 -9z"/>
<path d="M3456 1267 c3 -10 9 -15 12 -12 3 3 0 11 -7 18 -10 9 -11 8 -5 -6z"/>
<path d="M715 1260 c3 -5 8 -10 11 -10 2 0 4 5 4 10 0 6 -5 10 -11 10 -5 0 -7
-4 -4 -10z"/>
<path d="M5654 1236 c1 -8 5 -18 8 -22 4 -3 5 1 4 10 -1 8 -5 18 -8 22 -4 3
-5 -1 -4 -10z"/>
<path d="M736 1182 c-2 -4 -1 -14 4 -22 7 -11 9 -9 7 8 -1 24 -3 26 -11 14z"/>
<path d="M3519 1153 c-13 -16 -12 -17 4 -4 16 13 21 21 13 21 -2 0 -10 -8 -17
-17z"/>
<path d="M5635 1160 c-3 -5 -1 -10 4 -10 6 0 11 5 11 10 0 6 -2 10 -4 10 -3 0
-8 -4 -11 -10z"/>
<path d="M776 1138 c3 -5 10 -6 15 -3 13 9 11 12 -6 12 -8 0 -12 -4 -9 -9z"/>
<path d="M815 1100 c-3 -5 -1 -10 4 -10 6 0 11 5 11 10 0 6 -2 10 -4 10 -3 0
-8 -4 -11 -10z"/>
<path d="M3575 1061 c-3 -5 -2 -12 3 -15 5 -3 9 1 9 9 0 17 -3 19 -12 6z"/>
<path d="M786 1038 c3 -5 10 -6 15 -3 13 9 11 12 -6 12 -8 0 -12 -4 -9 -9z"/>
<path d="M3615 1020 c-3 -5 -1 -10 4 -10 6 0 11 5 11 10 0 6 -2 10 -4 10 -3 0
-8 -4 -11 -10z"/>
<path d="M5510 999 c0 -5 5 -7 10 -4 6 3 10 8 10 11 0 2 -4 4 -10 4 -5 0 -10
-5 -10 -11z"/>
<path d="M976 958 c3 -5 10 -6 15 -3 13 9 11 12 -6 12 -8 0 -12 -4 -9 -9z"/>
<path d="M5453 945 c0 -8 4 -12 9 -9 5 3 6 10 3 15 -9 13 -12 11 -12 -6z"/>
<path d="M2695 940 c3 -5 8 -10 11 -10 2 0 4 5 4 10 0 6 -5 10 -11 10 -5 0 -7
-4 -4 -10z"/>
<path d="M5375 929 c-4 -6 -5 -12 -2 -15 2 -3 7 2 10 11 7 17 1 20 -8 4z"/>
<path d="M867 919 c7 -7 15 -10 18 -7 3 3 -2 9 -12 12 -14 6 -15 5 -6 -5z"/>
<path d="M2653 911 c0 -11 5 -18 9 -15 4 3 5 11 1 19 -7 21 -12 19 -10 -4z"/>
<path d="M5336 913 c-6 -14 -5 -15 5 -6 7 7 10 15 7 18 -3 3 -9 -2 -12 -12z"/>
<path d="M2587 899 c7 -7 15 -10 18 -7 3 3 -2 9 -12 12 -14 6 -15 5 -6 -5z"/>
<path d="M5414 898 c-4 -7 -4 -10 1 -6 4 4 15 2 24 -5 14 -11 14 -10 2 6 -16
20 -18 21 -27 5z"/>
<path d="M2549 883 c-13 -16 -12 -17 4 -4 9 7 17 15 17 17 0 8 -8 3 -21 -13z"/>
<path d="M976 882 c-3 -5 1 -9 9 -9 8 0 12 4 9 9 -3 4 -7 8 -9 8 -2 0 -6 -4
-9 -8z"/>
<path d="M2613 865 c0 -8 4 -12 9 -9 5 3 6 10 3 15 -9 13 -12 11 -12 -6z"/>
<path d="M5273 865 c0 -8 4 -12 9 -9 5 3 6 10 3 15 -9 13 -12 11 -12 -6z"/>
<path d="M3774 856 c1 -8 5 -18 8 -22 4 -3 5 1 4 10 -1 8 -5 18 -8 22 -4 3 -5
-1 -4 -10z"/>
<path d="M5330 859 c0 -5 5 -7 10 -4 6 3 10 8 10 11 0 2 -4 4 -10 4 -5 0 -10
-5 -10 -11z"/>
<path d="M3875 850 c-4 -6 -11 -7 -17 -4 -7 4 -8 2 -4 -5 6 -9 11 -9 22 0 14
11 18 19 10 19 -3 0 -8 -5 -11 -10z"/>
<path d="M1054 822 c4 -3 14 -7 22 -8 9 -1 13 0 10 4 -4 3 -14 7 -22 8 -9 1
-13 0 -10 -4z"/>
<path d="M1155 821 c-3 -5 -2 -12 3 -15 5 -3 9 1 9 9 0 17 -3 19 -12 6z"/>
<path d="M2470 816 c7 -7 13 -7 20 0 6 6 3 10 -10 10 -13 0 -16 -4 -10 -10z"/>
<path d="M3816 818 c3 -4 11 -5 19 -1 21 7 19 12 -4 10 -11 0 -18 -5 -15 -9z"/>
<path d="M2431 807 c-8 -10 -7 -14 2 -14 8 0 14 6 14 14 0 7 -1 13 -2 13 -2 0
-8 -6 -14 -13z"/>
<path d="M3955 791 c-3 -5 -2 -12 3 -15 5 -3 9 1 9 9 0 17 -3 19 -12 6z"/>
<path d="M3830 786 c0 -2 7 -7 16 -10 8 -3 12 -2 9 4 -6 10 -25 14 -25 6z"/>
<path d="M3895 780 c-3 -5 -1 -10 4 -10 6 0 11 5 11 10 0 6 -2 10 -4 10 -3 0
-8 -4 -11 -10z"/>
<path d="M5215 780 c3 -5 8 -10 11 -10 2 0 4 5 4 10 0 6 -5 10 -11 10 -5 0 -7
-4 -4 -10z"/>
<path d="M4025 760 c10 -11 20 -20 23 -20 3 0 -3 9 -13 20 -10 11 -20 20 -23
20 -3 0 3 -9 13 -20z"/>
<path d="M2415 751 c-3 -5 -2 -12 3 -15 5 -3 9 1 9 9 0 17 -3 19 -12 6z"/>
<path d="M5033 735 c0 -8 4 -12 9 -9 5 3 6 10 3 15 -9 13 -12 11 -12 -6z"/>
<path d="M1229 723 c-13 -16 -12 -17 4 -4 9 7 17 15 17 17 0 8 -8 3 -21 -13z"/>
<path d="M1326 718 c3 -5 10 -6 15 -3 13 9 11 12 -6 12 -8 0 -12 -4 -9 -9z"/>
<path d="M2285 719 c-3 -4 2 -6 10 -5 21 3 28 13 10 13 -9 0 -18 -4 -20 -8z"/>
<path d="M4119 713 c-13 -16 -12 -17 4 -4 16 13 21 21 13 21 -2 0 -10 -8 -17
-17z"/>
<path d="M4953 705 c0 -8 4 -12 9 -9 5 3 6 10 3 15 -9 13 -12 11 -12 -6z"/>
<path d="M1290 699 c0 -5 5 -7 10 -4 6 3 10 8 10 11 0 2 -4 4 -10 4 -5 0 -10
-5 -10 -11z"/>
<path d="M4016 698 c3 -4 11 -5 19 -1 21 7 19 12 -4 10 -11 0 -18 -5 -15 -9z"/>
<path d="M5095 700 c-3 -5 -1 -10 4 -10 6 0 11 5 11 10 0 6 -2 10 -4 10 -3 0
-8 -4 -11 -10z"/>
<path d="M5136 702 c-2 -4 -1 -14 4 -22 7 -11 9 -9 7 8 -1 24 -3 26 -11 14z"/>
<path d="M4250 696 c0 -2 8 -10 18 -17 15 -13 16 -12 3 4 -13 16 -21 21 -21
13z"/>
<path d="M1514 676 c1 -8 5 -18 8 -22 4 -3 5 1 4 10 -1 8 -5 18 -8 22 -4 3 -5
-1 -4 -10z"/>
<path d="M2215 680 c3 -5 8 -10 11 -10 2 0 4 5 4 10 0 6 -5 10 -11 10 -5 0 -7
-4 -4 -10z"/>
<path d="M4996 678 c3 -5 10 -6 15 -3 13 9 11 12 -6 12 -8 0 -12 -4 -9 -9z"/>
<path d="M4310 655 c5 -7 6 -16 2 -21 -4 -5 -3 -5 2 -1 15 12 15 34 0 34 -9 0
-11 -4 -4 -12z"/>
<path d="M4760 660 c-9 -6 -10 -10 -3 -10 6 0 15 5 18 10 8 12 4 12 -15 0z"/>
<path d="M4930 659 c0 -5 5 -7 10 -4 6 3 10 8 10 11 0 2 -4 4 -10 4 -5 0 -10
-5 -10 -11z"/>
<path d="M5046 662 c-3 -5 1 -9 9 -9 8 0 12 4 9 9 -3 4 -7 8 -9 8 -2 0 -6 -4
-9 -8z"/>
<path d="M1540 646 c0 -2 8 -10 18 -17 15 -13 16 -12 3 4 -13 16 -21 21 -21
13z"/>
<path d="M1576 638 c3 -5 10 -6 15 -3 13 9 11 12 -6 12 -8 0 -12 -4 -9 -9z"/>
<path d="M1637 631 c-10 -14 -10 -14 4 -4 9 7 18 10 21 7 3 -3 8 -1 12 4 9 16
-24 9 -37 -7z"/>
<path d="M2307 639 c7 -7 15 -10 18 -7 3 3 -2 9 -12 12 -14 6 -15 5 -6 -5z"/>
<path d="M4213 631 c0 -11 5 -18 9 -15 4 3 5 11 1 19 -7 21 -12 19 -10 -4z"/>
<path d="M4606 642 c-3 -5 1 -9 9 -9 8 0 12 4 9 9 -3 4 -7 8 -9 8 -2 0 -6 -4
-9 -8z"/>
<path d="M4640 646 c0 -2 8 -10 18 -17 15 -13 16 -12 3 4 -13 16 -21 21 -21
13z"/>
<path d="M1453 615 c0 -8 4 -12 9 -9 5 3 6 10 3 15 -9 13 -12 11 -12 -6z"/>
<path d="M4246 622 c-3 -5 1 -9 9 -9 8 0 12 4 9 9 -3 4 -7 8 -9 8 -2 0 -6 -4
-9 -8z"/>
<path d="M4890 619 c0 -5 5 -7 10 -4 6 3 10 8 10 11 0 2 -4 4 -10 4 -5 0 -10
-5 -10 -11z"/>
<path d="M4315 611 c-3 -5 -2 -12 3 -15 5 -3 9 1 9 9 0 17 -3 19 -12 6z"/>
<path d="M4749 603 c-13 -16 -12 -17 4 -4 9 7 17 15 17 17 0 8 -8 3 -21 -13z"/>
<path d="M1933 591 c0 -11 5 -18 9 -15 4 3 5 11 1 19 -7 21 -12 19 -10 -4z"/>
<path d="M1977 595 c-4 -8 -3 -16 1 -19 4 -3 9 4 9 15 2 23 -3 25 -10 4z"/>
<path d="M4959 593 c-13 -16 -12 -17 4 -4 9 7 17 15 17 17 0 8 -8 3 -21 -13z"/>
<path d="M2010 580 c0 -5 5 -10 11 -10 5 0 7 5 4 10 -3 6 -8 10 -11 10 -2 0
-4 -4 -4 -10z"/>
<path d="M4366 582 c-3 -5 1 -9 9 -9 8 0 12 4 9 9 -3 4 -7 8 -9 8 -2 0 -6 -4
-9 -8z"/>
<path d="M4690 579 c0 -5 5 -7 10 -4 6 3 10 8 10 11 0 2 -4 4 -10 4 -5 0 -10
-5 -10 -11z"/>
<path d="M1785 560 c-3 -6 1 -7 9 -4 18 7 21 14 7 14 -6 0 -13 -4 -16 -10z"/>
<path d="M1830 560 c0 -5 5 -10 11 -10 5 0 7 5 4 10 -3 6 -8 10 -11 10 -2 0
-4 -4 -4 -10z"/>
<path d="M1870 566 c0 -2 7 -7 16 -10 8 -3 12 -2 9 4 -6 10 -25 14 -25 6z"/>
<path d="M4795 529 c-4 -6 -5 -12 -2 -15 2 -3 7 2 10 11 7 17 1 20 -8 4z"/>
</g>
</svg>
