<?xml version="1.0" standalone="no"?><!DOCTYPE svg PUBLIC "-//W3C//DTD SVG 1.1//EN" "http://www.w3.org/Graphics/SVG/1.1/DTD/svg11.dtd"><svg t="1642681353930" class="icon" viewBox="0 0 1024 1024" version="1.1" xmlns="http://www.w3.org/2000/svg" p-id="11275" xmlns:xlink="http://www.w3.org/1999/xlink" width="200" height="200"><defs><style type="text/css"></style></defs><path d="M895.49 853.45V299.52c0-23.53-19.08-42.61-42.61-42.61s-42.61 19.08-42.61 42.61v553.92h-85.22V469.96c0-23.53-19.08-42.61-42.61-42.61s-42.61 19.08-42.61 42.61v383.49h-85.22V384.74c0-23.53-19.07-42.61-42.61-42.61s-42.61 19.08-42.61 42.61v468.71h-85.22V555.18c0-23.53-19.07-42.61-42.61-42.61-23.53 0-42.61 19.08-42.61 42.61v298.27h-85.22v-426.1c0-23.53-19.08-42.61-42.61-42.61s-42.61 19.08-42.61 42.61v426.1c-23.53 0-42.61 19.08-42.61 42.61s19.08 42.61 42.61 42.61h766.97c23.53 0 42.61-19.08 42.61-42.61 0.01-23.54-19.07-42.61-42.6-42.61z"  p-id="11276"></path><path d="M145.56 247.2l165.75 124c3.41 3.41 7.24 5.97 11.51 8.1 1.7 0.43 3.41 1.28 5.11 2.13 1.7 0.42 3.41 0.85 5.55 1.28 2.55 0.43 5.53 0.85 8.09 0.85 3.41 0 6.39-0.43 9.37-1.28 2.99-0.43 5.97-1.7 8.95-2.98 0.43 0 0.43 0 0.85-0.42 2.56-1.28 5.55-2.98 7.67-5.12 2.55-2.13 5.11-4.69 7.24-7.24-1.71 2.13-3.41 3.84-5.54 5.97 0.43-0.43 1.28-0.85 1.7-1.28L520.52 222.5l141.89 70.73c6.39 3.41 13.21 5.11 20.02 5.11 4.26 0 8.95-0.85 13.21-2.13 2.56-0.85 4.68-2.13 7.24-3.41 1.71-0.85 3.41-1.71 5.11-2.98l170.44-127.83c18.75-14.06 22.59-40.91 8.53-59.65-14.06-18.75-40.9-22.58-59.65-8.52L677.75 205.87l-141.46-70.73-5.12-2.56c-6.39-2.98-12.78-4.69-19.17-4.69-3.41 0-6.81 0.43-10.23 1.7-0.85-0.43-1.28 0-1.71 0-3.83 0.85-7.24 2.56-10.23 4.26-2.98 1.7-5.54 3.83-8.09 6.39l-0.85 1.28L337.3 284.7 196.69 179.03c-18.75-14.06-45.59-10.23-59.65 8.52-14.07 18.75-10.23 45.59 8.52 59.65z"  p-id="11277"></path></svg>