<svg t="1642753714764" class="icon" viewBox="0 0 1024 1024" version="1.1" xmlns="http://www.w3.org/2000/svg" p-id="9215" data-spm-anchor-id="a313x.7781069.0.i2" width="200" height="200"><path d="M866.930248 715.615207V309.738843a108.12086 108.12086 0 1 0-131.34281-153.684628H283.673388a108.053157 108.053157 0 1 0-124.911074 155.715702v401.814215a108.087008 108.087008 0 1 0 127.280661 151.315042h447.174876a108.087008 108.087008 0 1 0 133.712397-149.283967z m-37.236364-553.806281a46.376198 46.376198 0 1 1-46.376198 46.376198 46.240793 46.240793 0 0 1 46.376198-46.376198zM142.513719 208.185124a46.376198 46.376198 0 1 1 46.376198 46.376198 46.443901 46.443901 0 0 1-46.376198-46.376198zM188.889917 863.206612a46.376198 46.376198 0 1 1 46.376199-46.376199 46.240793 46.240793 0 0 1-46.376199 46.376199z m533.83405-60.593719H296.198347a108.594777 108.594777 0 0 0-75.826777-89.028761V311.431405a107.714645 107.714645 0 0 0 75.826777-93.090909h426.187108a107.883901 107.883901 0 0 0 82.258512 95.121983v398.429091a107.613091 107.613091 0 0 0-81.92 90.721323z m106.969917 60.593719a46.376198 46.376198 0 1 1 46.376199-46.376199 46.240793 46.240793 0 0 1-46.376199 46.376199z" p-id="9216"></path><path d="M537.557686 297.552397a4.671471 4.671471 0 0 1-1.015537-1.35405 31.447802 31.447802 0 0 0-16.248595-20.310744 30.770777 30.770777 0 0 0-41.298513 14.556033L289.766612 684.133554a30.770777 30.770777 0 0 0 14.556033 41.298512 31.617058 31.617058 0 0 0 13.540495 3.046612 31.210843 31.210843 0 0 0 28.096529-17.602645L406.214876 585.626446h198.368264a9.918413 9.918413 0 0 0 3.046612-0.677025l63.640331 132.69686a31.210843 31.210843 0 0 0 28.096529 17.602645 32.768 32.768 0 0 0 13.540495-3.046612 30.872331 30.872331 0 0 0 14.556033-41.298512z m-101.892231 226.464793l70.74909-147.591405 70.749091 147.591405z" p-id="9217"></path></svg>