<svg t="1667646551663" class="icon" viewBox="0 0 1024 1024" version="1.1" xmlns="http://www.w3.org/2000/svg" p-id="3624" width="200" height="200"><path d="M981.333333 682.666667c-25.6 0-42.666667 17.066667-42.666666 42.666666v192c0 12.8-8.533333 21.333333-21.333334 21.333334H725.333333c-25.6 0-42.666667 17.066667-42.666666 42.666666s17.066667 42.666667 42.666666 42.666667h192c59.733333 0 106.666667-46.933333 106.666667-106.666667V725.333333c0-25.6-17.066667-42.666667-42.666667-42.666666zM298.666667 938.666667H106.666667c-12.8 0-21.333333-8.533333-21.333334-21.333334V725.333333c0-25.6-17.066667-42.666667-42.666666-42.666666s-42.666667 17.066667-42.666667 42.666666v192C0 977.066667 46.933333 1024 106.666667 1024H298.666667c25.6 0 42.666667-17.066667 42.666666-42.666667s-17.066667-42.666667-42.666666-42.666666zM917.333333 0H725.333333c-25.6 0-42.666667 17.066667-42.666666 42.666667s17.066667 42.666667 42.666666 42.666666h192c12.8 0 21.333333 8.533333 21.333334 21.333334V298.666667c0 25.6 17.066667 42.666667 42.666666 42.666666s42.666667-17.066667 42.666667-42.666666V106.666667C1024 46.933333 977.066667 0 917.333333 0zM42.666667 341.333333c25.6 0 42.666667-17.066667 42.666666-42.666666V106.666667c0-12.8 8.533333-21.333333 21.333334-21.333334H298.666667c25.6 0 42.666667-17.066667 42.666666-42.666666s-17.066667-42.666667-42.666666-42.666667H106.666667C46.933333 0 0 46.933333 0 106.666667V298.666667c0 25.6 17.066667 42.666667 42.666667 42.666666z" p-id="3625"></path><path d="M183.466667 277.333333v469.333334c0 51.2 42.666667 98.133333 98.133333 98.133333h469.333333c51.2 0 98.133333-42.666667 98.133334-98.133333v-469.333334c0-51.2-42.666667-98.133333-98.133334-98.133333h-469.333333c-55.466667 4.266667-98.133333 46.933333-98.133333 98.133333z m597.333333 0v469.333334c0 17.066667-12.8 34.133333-34.133333 34.133333h-469.333334c-17.066667 0-34.133333-12.8-34.133333-34.133333v-469.333334c0-17.066667 12.8-34.133333 34.133333-34.133333h469.333334c17.066667 4.266667 34.133333 17.066667 34.133333 34.133333z" p-id="3626"></path></svg>