<?xml version="1.0" standalone="no"?><!DOCTYPE svg PUBLIC "-//W3C//DTD SVG 1.1//EN" "http://www.w3.org/Graphics/SVG/1.1/DTD/svg11.dtd"><svg t="1641709625558" class="icon" viewBox="0 0 1024 1024" version="1.1" xmlns="http://www.w3.org/2000/svg" p-id="8417" xmlns:xlink="http://www.w3.org/1999/xlink" width="200" height="200"><defs><style type="text/css"></style></defs><path d="M286.281 282.102h-100V100.167c0-55.14 44.86-100 100-100h234.04c55.141 0 100 44.86 100 100v177.667h-100V100.167h-234.04v181.935zM520.321 1024h-234.04c-55.14 0-100-44.86-100-100V615.085h100V924h234.04V617.834h100V924c0 55.14-44.859 100-100 100z" fill="" p-id="8418"></path><path d="M805.748 627.099h-704.5c-55.14 0-100-44.859-100-100v-234.04c0-55.14 44.86-100 100-100h704.5c13.16 0 25.79 5.188 35.149 14.44l168.971 167.02a50 50 0 0 1 0 71.12L840.897 612.658a49.997 49.997 0 0 1-35.149 14.441z m-704.5-100.003l683.959 0.003 118.387-117.02-118.387-117.02H101.248v234.04-0.003z" fill="" p-id="8419"></path><path d="M669.583 458.5H225.539c-27.614 0-50-22.386-50-50s22.386-50 50-50h444.044c27.614 0 50 22.386 50 50s-22.386 50-50 50z" fill="" p-id="8420"></path></svg>