<svg t="1642994214463" class="icon" viewBox="0 0 1024 1024" version="1.1" xmlns="http://www.w3.org/2000/svg" p-id="9210" width="200" height="200"><path d="M864 704c-44.8 0-83.2 19.2-115.2 51.2L320 537.6C320 531.2 320 518.4 320 512c0-6.4 0-19.2 0-25.6l428.8-217.6C780.8 300.8 819.2 320 864 320 953.6 320 1024 249.6 1024 160 1024 70.4 953.6 0 864 0S704 70.4 704 160c0 6.4 0 19.2 0 25.6L275.2 403.2C243.2 371.2 204.8 352 160 352 70.4 352 0 422.4 0 512c0 89.6 70.4 160 160 160 44.8 0 83.2-19.2 115.2-51.2l428.8 217.6c0 6.4 0 19.2 0 25.6 0 89.6 70.4 160 160 160s160-70.4 160-160C1024 774.4 953.6 704 864 704z" p-id="9211"></path></svg>