<?xml version="1.0" standalone="no"?><!DOCTYPE svg PUBLIC "-//W3C//DTD SVG 1.1//EN" "http://www.w3.org/Graphics/SVG/1.1/DTD/svg11.dtd"><svg t="1640771117361" class="icon" viewBox="0 0 1024 1024" version="1.1" xmlns="http://www.w3.org/2000/svg" p-id="3282" xmlns:xlink="http://www.w3.org/1999/xlink" width="200" height="200"><defs><style type="text/css"></style></defs><path d="M512.704 106.666667a181.333333 181.333333 0 0 1 181.333333 181.333333l-0.021333 53.333333H789.333333a64 64 0 0 1 64 64v384a64 64 0 0 1-64 64H234.666667a64 64 0 0 1-64-64V405.333333a64 64 0 0 1 64-64h96.682666v-53.333333a181.333333 181.333333 0 0 1 181.333334-181.333333z m37.418667 405.333333h-64v170.666667h64v-170.666667zM512.704 170.666667a117.333333 117.333333 0 0 0-117.333333 117.333333V341.333333h234.666666v-53.333333a117.333333 117.333333 0 0 0-117.333333-117.333333z" p-id="3283"></path></svg>