<?xml version="1.0" encoding="UTF-8"?>
<svg width="784px" height="355px" viewBox="0 0 784 355" version="1.1" xmlns="http://www.w3.org/2000/svg" xmlns:xlink="http://www.w3.org/1999/xlink">
    <title>403</title>
    <defs>
        <polygon id="path-1" points="254.932248 354.444609 254.932248 0 0 0 1.37252235e-14 354.444609 254.932248 354.444609"></polygon>
    </defs>
    <g id="403" stroke="none" stroke-width="1" fill="none" fill-rule="evenodd">
        <g transform="translate(0.234375, 0.000000)" id="Group-4">
            <g id="Group-2" transform="translate(0.000000, 46.476562)" fill="currentcolor" fill-rule="nonzero">
                <g id="4" transform="translate(0.000000, 4.687500)">
                    <path d="M141.601562,281.835938 L175.585938,281.835938 L175.585938,223.242188 L215.429688,223.242188 L215.429688,192.382812 L175.585938,192.382812 L175.585938,0 L123.632812,0 C115.429688,12.7604167 107.19401,25.5208333 98.9257812,38.28125 C90.6575521,51.0416667 82.421875,63.8020833 74.21875,76.5625 C66.015625,89.3229167 57.7799479,102.083333 49.5117188,114.84375 C41.2434896,127.604167 32.9752604,140.364583 24.7070312,153.125 C16.4388021,165.885417 8.203125,178.645833 0,191.40625 L0,223.242188 L141.601562,223.242188 L141.601562,281.835938 Z M34.765625,192.382812 L34.765625,191.601562 C41.796875,180.794271 48.828125,170.019531 55.859375,159.277344 C62.890625,148.535156 69.9544271,137.760417 77.0507812,126.953125 C84.1471354,116.145833 91.2109375,105.371094 98.2421875,94.6289062 C105.273438,83.8867188 112.304688,73.1445312 119.335938,62.4023438 C126.367188,51.6601562 133.398438,40.8854167 140.429688,30.078125 L141.601562,30.078125 L141.601562,192.382812 L34.765625,192.382812 Z" id="形状"></path>
                </g>
                <g id="3" transform="translate(585.734375, 0.000000)">
                    <path d="M99.8046875,291.210938 C118.684896,291.210938 135.481771,287.66276 150.195312,280.566406 C164.908854,273.470052 176.497396,263.736979 184.960938,251.367188 C193.424479,238.997396 197.65625,225 197.65625,209.375 L197.65625,208.984375 C197.65625,188.932292 191.308594,172.81901 178.613281,160.644531 C165.917969,148.470052 149.283854,141.536458 128.710938,139.84375 L128.710938,139.0625 C140.429688,136.588542 150.78125,132.356771 159.765625,126.367187 C168.75,120.377604 175.78125,112.890625 180.859375,103.90625 C185.9375,94.921875 188.476562,84.6354167 188.476562,73.046875 L188.476562,72.65625 C188.476562,58.3333333 184.798177,45.7356771 177.441406,34.8632812 C170.084635,23.9908854 159.733073,15.4622396 146.386719,9.27734375 C133.040365,3.09244792 117.382812,0 99.4140625,0 C81.8359375,0 66.3085938,3.19010417 52.8320312,9.5703125 C39.3554688,15.9505208 28.5481771,24.8697917 20.4101562,36.328125 C12.2721354,47.7864583 7.421875,61.1979167 5.859375,76.5625 L5.6640625,78.515625 L39.453125,78.515625 L39.6484375,76.5625 C40.6901042,67.0572917 43.8151042,58.8541667 49.0234375,51.953125 C54.2317708,45.0520833 61.1653646,39.7460937 69.8242188,36.0351562 C78.4830729,32.3242188 88.3463542,30.46875 99.4140625,30.46875 C110.872396,30.46875 120.605469,32.2916667 128.613281,35.9375 C136.621094,39.5833333 142.708333,44.8567708 146.875,51.7578125 C151.041667,58.6588542 153.125,67.0572917 153.125,76.953125 L153.125,77.34375 C153.125,86.71875 150.716146,95.0846354 145.898438,102.441406 C141.080729,109.798177 134.375,115.592448 125.78125,119.824219 C117.1875,124.05599 107.291667,126.171875 96.09375,126.171875 L62.3046875,126.171875 L62.3046875,155.859375 L97.65625,155.859375 C117.447917,155.859375 133.105469,160.514323 144.628906,169.824219 C156.152344,179.134115 161.914062,192.447917 161.914062,209.765625 L161.914062,210.15625 C161.914062,220.052083 159.309896,228.808594 154.101562,236.425781 C148.893229,244.042969 141.634115,250 132.324219,254.296875 C123.014323,258.59375 112.174479,260.742188 99.8046875,260.742188 C87.3046875,260.742188 76.3020833,258.75651 66.796875,254.785156 C57.2916667,250.813802 49.7070312,245.3125 44.0429688,238.28125 C38.3789062,231.25 35.0260417,223.111979 33.984375,213.867188 L33.7890625,211.914062 L0,211.914062 L0.1953125,214.257812 C1.49739583,229.101562 6.34765625,242.317708 14.7460938,253.90625 C23.1445312,265.494792 34.5703125,274.609375 49.0234375,281.25 C63.4765625,287.890625 80.4036458,291.210938 99.8046875,291.210938 Z" id="路径"></path>
                </g>
            </g>
            <g id="Page-1" transform="translate(263.765625, 0.000000)">
                <g id="Group-3" transform="translate(0.000000, 0.099481)">
                    <mask id="mask-2" fill="white">
                        <use xlink:href="#path-1"></use>
                    </mask>
                    <g id="Clip-2"></g>
                    <path d="M183.35609,112.487272 C166.457327,104.228838 147.54583,99.4463415 127.459552,99.4463415 C107.389704,99.4463415 88.469991,104.228838 71.5794439,112.487272 L71.5794439,102.3635 C71.6698117,72.8960912 96.6441614,48.9753921 127.459552,48.9753921 C158.283157,48.9753921 183.265722,72.8960912 183.35609,102.3635 L183.35609,112.487272 Z M127.459552,286.506044 C94.5903498,286.506044 67.9400897,259.848968 67.9400897,226.963143 C67.9400897,194.0691 94.5903498,167.420241 127.459552,167.420241 C160.345184,167.420241 186.995444,194.0691 186.995444,226.963143 C186.995444,259.848968 160.345184,286.506044 127.459552,286.506044 L127.459552,286.506044 Z M229.813309,151.174545 L229.813309,98.1644353 L229.607928,98.1644353 C227.365166,43.56016 182.567426,0 127.459552,0 C71.7355336,0 26.4941704,44.5873285 25.2290224,100.054425 L25.114009,100.054425 L25.114009,151.174545 C9.4064574,172.391737 0,198.522902 0,226.963143 C0,297.377595 57.0631031,354.447074 127.459552,354.447074 C197.864215,354.447074 254.935534,297.377595 254.935534,226.963143 C254.935534,198.522902 245.520861,172.391737 229.813309,151.174545 L229.813309,151.174545 Z" id="Fill-1" fill="currentcolor" mask="url(#mask-2)"></path>
                </g>
                <path d="M127.707767,198 C112.961399,198 101,209.972676 101,224.722815 C101,239.489388 112.961399,251.445629 127.707767,251.445629 C142.46235,251.445629 154.423749,239.489388 154.423749,224.722815 C154.423749,209.972676 142.46235,198 127.707767,198" id="Fill-4" fill="currentcolor"></path>
            </g>
        </g>
    </g>
</svg>