<?xml version="1.0" encoding="UTF-8"?>
<svg width="819.999365px" height="298.737372px" viewBox="0 0 819.999365 298.737372" version="1.1" xmlns="http://www.w3.org/2000/svg" xmlns:xlink="http://www.w3.org/1999/xlink">
    <title>404</title>
    <g id="404" stroke="none" stroke-width="1" fill="none" fill-rule="evenodd">
        <g id="4" transform="translate(15.234375, 12.164062)" fill="currentcolor" fill-rule="nonzero">
            <path d="M141.601562,281.835938 L175.585938,281.835938 L175.585938,223.242188 L215.429688,223.242188 L215.429688,192.382812 L175.585938,192.382812 L175.585938,0 L123.632812,0 C115.429688,12.7604167 107.19401,25.5208333 98.9257812,38.28125 C90.6575521,51.0416667 82.421875,63.8020833 74.21875,76.5625 C66.015625,89.3229167 57.7799479,102.083333 49.5117188,114.84375 C41.2434896,127.604167 32.9752604,140.364583 24.7070312,153.125 C16.4388021,165.885417 8.203125,178.645833 0,191.40625 L0,223.242188 L141.601562,223.242188 L141.601562,281.835938 Z M34.765625,192.382812 L34.765625,191.601562 C41.796875,180.794271 48.828125,170.019531 55.859375,159.277344 C62.890625,148.535156 69.9544271,137.760417 77.0507812,126.953125 C84.1471354,116.145833 91.2109375,105.371094 98.2421875,94.6289062 C105.273438,83.8867188 112.304688,73.1445312 119.335938,62.4023438 C126.367188,51.6601562 133.398438,40.8854167 140.429688,30.078125 L141.601562,30.078125 L141.601562,192.382812 L34.765625,192.382812 Z" id="形状"></path>
        </g>
        <g id="4-" transform="translate(581.233740, 12.164062)" fill="currentcolor" fill-rule="nonzero">
            <path d="M141.601562,281.835938 L175.585938,281.835938 L175.585938,223.242188 L215.429688,223.242188 L215.429688,192.382812 L175.585938,192.382812 L175.585938,0 L123.632812,0 C115.429688,12.7604167 107.19401,25.5208333 98.9257812,38.28125 C90.6575521,51.0416667 82.421875,63.8020833 74.21875,76.5625 C66.015625,89.3229167 57.7799479,102.083333 49.5117188,114.84375 C41.2434896,127.604167 32.9752604,140.364583 24.7070312,153.125 C16.4388021,165.885417 8.203125,178.645833 0,191.40625 L0,223.242188 L141.601562,223.242188 L141.601562,281.835938 Z M34.765625,192.382812 L34.765625,191.601562 C41.796875,180.794271 48.828125,170.019531 55.859375,159.277344 C62.890625,148.535156 69.9544271,137.760417 77.0507812,126.953125 C84.1471354,116.145833 91.2109375,105.371094 98.2421875,94.6289062 C105.273438,83.8867188 112.304688,73.1445312 119.335938,62.4023438 C126.367188,51.6601562 133.398438,40.8854167 140.429688,30.078125 L141.601562,30.078125 L141.601562,192.382812 L34.765625,192.382812 Z" id="形状"></path>
        </g>
        <path d="M469.291287,137.329794 C455.264878,137.329794 443.884183,125.993421 443.884183,111.983724 C443.884183,97.990563 455.264878,86.6372076 469.291287,86.6372076 C483.318593,86.6372076 494.698391,97.990563 494.698391,111.983724 C494.698391,125.993421 483.318593,137.329794 469.291287,137.329794 M325.317101,111.983724 C325.317101,97.990563 336.697795,86.6372076 350.724205,86.6372076 C364.75151,86.6372076 376.131309,97.990563 376.131309,111.983724 C376.131309,125.993421 364.75151,137.329794 350.724205,137.329794 C336.697795,137.329794 325.317101,125.993421 325.317101,111.983724 M409.999683,0 C282.963266,0 283,118.282256 283,118.282256 L283,298.737372 L314.773215,256.538463 L346.49133,298.737372 L378.213028,256.538463 L409.936519,298.737372 L441.660457,256.538463 L473.385291,298.737372 L505.134764,256.538463 L536.999365,298.737372 L536.999365,118.282256 C536.999365,118.282256 537.035651,0 409.999683,0" id="Ghost" fill="currentcolor"></path>
    </g>
</svg>