<?xml version="1.0" encoding="UTF-8"?>
<svg width="804px" height="299px" viewBox="0 0 804 299" version="1.1" xmlns="http://www.w3.org/2000/svg" xmlns:xlink="http://www.w3.org/1999/xlink">
    <title>500</title>
    <defs>
        <polygon id="path-1" points="0 291.9375 320.325854 291.9375 320.325854 0 0 0"></polygon>
    </defs>
    <g id="500" stroke="none" stroke-width="1" fill="none" fill-rule="evenodd">
        <g id="5-copy" transform="translate(0.046875, 7.164062)" fill="currentcolor" fill-rule="nonzero">
            <path d="M96.6796875,286.523438 C116.210938,286.523438 133.528646,282.454427 148.632812,274.316406 C163.736979,266.178385 175.585938,254.882812 184.179688,240.429688 C192.773438,225.976562 197.070312,209.375 197.070312,190.625 L197.070312,190.234375 C197.070312,172.135417 193.066406,156.08724 185.058594,142.089844 C177.050781,128.092448 166.048177,117.057292 152.050781,108.984375 C138.053385,100.911458 122.005208,96.875 103.90625,96.875 C94.7916667,96.875 86.1979167,97.9817708 78.125,100.195312 C70.0520833,102.408854 62.7604167,105.664062 56.25,109.960938 C49.7395833,114.257812 44.2708333,119.596354 39.84375,125.976562 L39.0625,125.976562 L48.6328125,31.25 L181.054688,31.25 L181.054688,0 L19.7265625,0 L5.2734375,160.742188 L36.328125,160.742188 C38.1510417,157.486979 40.2018229,154.492188 42.4804688,151.757812 C44.7591146,149.023437 47.1354167,146.484375 49.609375,144.140625 C55.859375,138.411458 63.0533854,134.147135 71.1914062,131.347656 C79.3294271,128.548177 88.1510417,127.148438 97.65625,127.148438 C110.15625,127.148438 121.223958,129.882812 130.859375,135.351562 C140.494792,140.820312 148.079427,148.339844 153.613281,157.910156 C159.147135,167.480469 161.914062,178.450521 161.914062,190.820313 L161.914062,191.210938 C161.914062,203.841146 159.179688,215.00651 153.710938,224.707031 C148.242188,234.407552 140.625,241.992188 130.859375,247.460938 C121.09375,252.929688 109.830729,255.664063 97.0703125,255.664063 C85.8723958,255.664063 75.78125,253.515625 66.796875,249.21875 C57.8125,244.921875 50.5208333,239.029948 44.921875,231.542969 C39.3229167,224.05599 35.9375,215.690104 34.765625,206.445312 L34.5703125,204.882812 L0,204.882812 L0.1953125,207.03125 C1.62760417,222.265625 6.57552083,235.872396 15.0390625,247.851562 C23.5026042,259.830729 34.7330729,269.270833 48.7304688,276.171875 C62.7278646,283.072917 78.7109375,286.523438 96.6796875,286.523438 Z" id="路径"></path>
        </g>
        <g id="0-copy" transform="translate(596.773438, 4.476562)" fill="currentcolor" fill-rule="nonzero">
            <path d="M103.320312,291.210938 C124.934896,291.210938 143.489583,285.286458 158.984375,273.4375 C174.479167,261.588542 186.360677,244.791667 194.628906,223.046875 C202.897135,201.302083 207.03125,175.520833 207.03125,145.703125 L207.03125,145.3125 C207.03125,115.494792 202.897135,89.7135417 194.628906,67.96875 C186.360677,46.2239583 174.479167,29.4596354 158.984375,17.6757812 C143.489583,5.89192708 124.934896,0 103.320312,0 C81.7057292,0 63.1835938,5.89192708 47.7539062,17.6757812 C32.3242188,29.4596354 20.5078125,46.2239583 12.3046875,67.96875 C4.1015625,89.7135417 0,115.494792 0,145.3125 L0,145.703125 C0,175.520833 4.1015625,201.302083 12.3046875,223.046875 C20.5078125,244.791667 32.3242188,261.588542 47.7539062,273.4375 C63.1835938,285.286458 81.7057292,291.210938 103.320312,291.210938 Z M103.320312,260.546875 C88.9973958,260.546875 76.7578125,255.891927 66.6015625,246.582031 C56.4453125,237.272135 48.6979167,224.023438 43.359375,206.835938 C38.0208333,189.648438 35.3515625,169.270833 35.3515625,145.703125 L35.3515625,145.3125 C35.3515625,121.744792 38.0208333,101.39974 43.359375,84.2773438 C48.6979167,67.1549479 56.4453125,53.9713542 66.6015625,44.7265625 C76.7578125,35.4817708 88.9973958,30.859375 103.320312,30.859375 C117.643229,30.859375 129.915365,35.4817708 140.136719,44.7265625 C150.358073,53.9713542 158.170573,67.1549479 163.574219,84.2773438 C168.977865,101.39974 171.679688,121.744792 171.679688,145.3125 L171.679688,145.703125 C171.679688,169.270833 168.977865,189.648438 163.574219,206.835938 C158.170573,224.023438 150.358073,237.272135 140.136719,246.582031 C129.915365,255.891927 117.643229,260.546875 103.320312,260.546875 Z" id="形状"></path>
        </g>
        <g id="face" transform="translate(241.000000, 7.000000)">
            <path d="M201.573299,225.610207 C203.626737,223.178416 204.653457,219.769707 204.653457,215.388018 L204.653457,198.080545 L177.372813,198.080545 L177.372813,215.388018 C177.372813,219.769707 178.483364,223.178416 180.704466,225.610207 C182.925569,228.041999 186.445623,229.257894 191.26463,229.257894 C196.083637,229.257894 199.51986,228.041999 201.573299,225.610207 L201.573299,225.610207 Z M168.195874,240.267483 C163.669837,234.886554 161.40726,227.204265 161.40726,217.217114 L161.40726,198.080545 L100,198.080545 L100,179 L220.745198,179 L220.745198,218.464523 C220.745198,227.561855 218.356432,234.816086 213.579341,240.224152 C208.801809,245.634406 201.405635,248.338439 191.390378,248.338439 C180.452971,248.338439 172.72147,245.646661 168.195874,240.267483 L168.195874,240.267483 Z" id="Fill-3" fill="currentcolor"></path>
            <mask id="mask-2" fill="white">
                <use xlink:href="#path-1"></use>
            </mask>
            <g id="Clip-6"></g>
            <path d="M89.1264772,43.7687406 L290.322881,43.7687406 L290.322881,29.3250562 L89.1264772,29.3250562 L89.1264772,43.7687406 Z M29.5617523,262.612444 L290.322881,262.612444 L290.322881,73.0937969 L29.5617523,73.0937969 L29.5617523,262.612444 Z M36.8264427,28.9814716 C40.8627249,28.9814716 44.1348138,32.2273614 44.1348138,36.2313258 C44.1348138,40.2352902 40.8627249,43.48118 36.8264427,43.48118 C32.7901604,43.48118 29.5180715,40.2352902 29.5180715,36.2313258 C29.5180715,32.2273614 32.7901604,28.9814716 36.8264427,28.9814716 L36.8264427,28.9814716 Z M66.8294152,28.9814716 C70.8656974,28.9814716 74.1377863,32.2273614 74.1377863,36.2313258 C74.1377863,40.2352902 70.8656974,43.48118 66.8294152,43.48118 C62.7931329,43.48118 59.5210441,40.2352902 59.5210441,36.2313258 C59.5210441,32.2273614 62.7931329,28.9814716 66.8294152,28.9814716 L66.8294152,28.9814716 Z M14.8964759,0 C6.71845974,0 0,6.35828495 0,14.4734472 L0,277.384831 C0,285.497368 6.71845974,291.9375 14.8964759,291.9375 L305.332751,291.9375 C313.516503,291.9375 320.325854,285.497368 320.325854,277.384831 L320.325854,14.4734472 C320.325854,6.35828495 313.516503,0 305.332751,0 L14.8964759,0 Z" id="Fill-5" fill="currentcolor" mask="url(#mask-2)"></path>
            <polygon id="Fill-1-Copy" fill="currentcolor" mask="url(#mask-2)" points="125.223272 139.580238 106.856158 121.353622 125.219742 103.134883 112.971028 91 94.6061205 109.21655 76.2438601 91 64 103.134883 82.3662314 121.361938 64 139.580238 76.2438601 151.725188 94.6061205 133.507763 112.977647 151.725188"></polygon>
            <polygon id="Fill-2-Copy" fill="currentcolor" mask="url(#mask-2)" points="257.223272 139.580238 238.856158 121.353622 257.219742 103.134883 244.971028 91 226.606121 109.21655 208.24386 91 196 103.134883 214.366231 121.361938 196 139.580238 208.24386 151.725188 226.606121 133.507763 244.977647 151.725188"></polygon>
        </g>
    </g>
</svg>